<svg xmlns:xlink="http://www.w3.org/1999/xlink" version="1.1" style="font-family:'lucida grande', 'lucida sans unicode', arial, helvetica, sans-serif;font-size:12px;" xmlns="http://www.w3.org/2000/svg" width="800" height="800"><desc>Created with Highcharts 4.0.3</desc><defs><clipPath id="highcharts-27"><rect x="0" y="0" width="384" height="322"></rect></clipPath></defs><rect x="0" y="0" width="800" height="800" strokeWidth="0" fill="#FFFFFF" class=" highcharts-background"></rect><g class="highcharts-grid" ></g><g class="highcharts-grid" ><path fill="none" d="M 120 46.5 L 504 46.5" stroke="#C0C0C0" stroke-width="1"  opacity="1"></path><path fill="none" d="M 120 79.5 L 504 79.5" stroke="#C0C0C0" stroke-width="1"  opacity="1"></path><path fill="none" d="M 120 111.5 L 504 111.5" stroke="#C0C0C0" stroke-width="1"  opacity="1"></path><path fill="none" d="M 120 144.5 L 504 144.5" stroke="#C0C0C0" stroke-width="1"  opacity="1"></path><path fill="none" d="M 120 176.5 L 504 176.5" stroke="#C0C0C0" stroke-width="1"  opacity="1"></path><path fill="none" d="M 120 208.5 L 504 208.5" stroke="#C0C0C0" stroke-width="1"  opacity="1"></path><path fill="none" d="M 120 240.5 L 504 240.5" stroke="#C0C0C0" stroke-width="1"  opacity="1"></path><path fill="none" d="M 120 272.5 L 504 272.5" stroke="#C0C0C0" stroke-width="1"  opacity="1"></path><path fill="none" d="M 120 305.5 L 504 305.5" stroke="#C0C0C0" stroke-width="1"  opacity="1"></path><path fill="none" d="M 120 337.5 L 504 337.5" stroke="#C0C0C0" stroke-width="1"  opacity="1"></path><path fill="none" d="M 120 369.5 L 504 369.5" stroke="#C0C0C0" stroke-width="1"  opacity="1"></path></g><g class="highcharts-axis" ><path fill="none" d="M 189.5 369 L 189.5 379" stroke="#C0D0E0" stroke-width="1" opacity="1"></path><path fill="none" d="M 224.5 369 L 224.5 379" stroke="#C0D0E0" stroke-width="1" opacity="1"></path><path fill="none" d="M 259.5 369 L 259.5 379" stroke="#C0D0E0" stroke-width="1" opacity="1"></path><path fill="none" d="M 294.5 369 L 294.5 379" stroke="#C0D0E0" stroke-width="1" opacity="1"></path><path fill="none" d="M 328.5 369 L 328.5 379" stroke="#C0D0E0" stroke-width="1" opacity="1"></path><path fill="none" d="M 363.5 369 L 363.5 379" stroke="#C0D0E0" stroke-width="1" opacity="1"></path><path fill="none" d="M 398.5 369 L 398.5 379" stroke="#C0D0E0" stroke-width="1" opacity="1"></path><path fill="none" d="M 433.5 369 L 433.5 379" stroke="#C0D0E0" stroke-width="1" opacity="1"></path><path fill="none" d="M 468.5 369 L 468.5 379" stroke="#C0D0E0" stroke-width="1" opacity="1"></path><path fill="none" d="M 503.5 369 L 503.5 379" stroke="#C0D0E0" stroke-width="1" opacity="1"></path><path fill="none" d="M 154.5 369 L 154.5 379" stroke="#C0D0E0" stroke-width="1" opacity="1"></path><path fill="none" d="M 119.5 369 L 119.5 379" stroke="#C0D0E0" stroke-width="1" opacity="1"></path><path fill="none" d="M 120 369.5 L 504 369.5" stroke="#C0D0E0" stroke-width="1"  visibility="visible"></path></g><g class="highcharts-axis" ><text x="47"  text-anchor="middle" transform="translate(0,0) rotate(270 47 208)" class=" highcharts-yaxis-title" style="color:#707070;fill:#707070;" visibility="visible" y="208"><tspan>Pourcentage (%)</tspan></text></g><g class="highcharts-series-group" ><g class="highcharts-series" visibility="visible"  transform="translate(120,47) scale(1 1)" clip-path="url(#highcharts-27)"><rect x="8.5" y="322.5" width="17" height="0" fill="#7cb5ec" rx="0" ry="0" stroke="#FFFFFF" stroke-width="1"></rect><rect x="43.5" y="322.5" width="17" height="0" fill="#7cb5ec" rx="0" ry="0" stroke="#FFFFFF" stroke-width="1"></rect><rect x="78.5" y="322.5" width="17" height="0" fill="#7cb5ec" rx="0" ry="0" stroke="#FFFFFF" stroke-width="1"></rect><rect x="113.5" y="322.5" width="17" height="0" fill="#7cb5ec" rx="0" ry="0" stroke="#FFFFFF" stroke-width="1"></rect><rect x="148.5" y="161.5" width="17" height="161" fill="#7cb5ec" rx="0" ry="0" stroke="#FFFFFF" stroke-width="1"></rect><rect x="183.5" y="161.5" width="17" height="161" fill="#7cb5ec" rx="0" ry="0" stroke="#FFFFFF" stroke-width="1"></rect><rect x="218.5" y="161.5" width="17" height="161" fill="#7cb5ec" rx="0" ry="0" stroke="#FFFFFF" stroke-width="1"></rect><rect x="252.5" y="161.5" width="17" height="161" fill="#7cb5ec" rx="0" ry="0" stroke="#FFFFFF" stroke-width="1"></rect><rect x="287.5" y="161.5" width="17" height="161" fill="#7cb5ec" rx="0" ry="0" stroke="#FFFFFF" stroke-width="1"></rect><rect x="322.5" y="-0.5" width="17" height="323" fill="#7cb5ec" rx="0" ry="0" stroke="#FFFFFF" stroke-width="1"></rect><rect x="357.5" y="-321.5" width="17" height="644" fill="#7cb5ec" rx="0" ry="0" stroke="#FFFFFF" stroke-width="1"></rect></g><g class="highcharts-markers" visibility="visible"  transform="translate(120,47) scale(1 1)" clip-path="none"></g></g><text x="400" text-anchor="middle" class="highcharts-title"  style="color:#333333;font-size:18px;fill:#333333;width:736px;" y="25"><tspan>Pourcentage de classifications par category</tspan></text><g class="highcharts-legend"  transform="translate(524,386)"><g ><g><g class="highcharts-legend-item"  transform="translate(8,3)"><text x="21" style="color:#000000;font-size:16px;font-weight:bold;cursor:pointer;fill:#000000;" text-anchor="start"  y="19"><tspan>Pourcentage de categories</tspan></text><rect x="0" y="8" width="16" height="12"  fill="#7cb5ec"></rect></g></g></g></g><g class="highcharts-axis-labels highcharts-xaxis-labels" ><text x="137.45454545454544" text-anchor="end" transform="translate(0,0) rotate(-90 137.45454545454544 377)" style="color:red;cursor:default;font-size:16px;fill:red;" y="377" opacity="1"><tspan>Régulation des processus d'assimilation de déchets</tspan></text><text x="172.36363636363637" text-anchor="end" transform="translate(0,0) rotate(-90 172.36363636363637 377)" style="color:red;cursor:default;font-size:16px;fill:red;" y="377" opacity="1"><tspan>Régulation des conditions biophysiques</tspan></text><text x="207.27272727272725" text-anchor="end" transform="translate(0,0) rotate(-90 207.27272727272725 377)" style="color:red;cursor:default;font-size:16px;fill:red;" y="377" opacity="1"><tspan>Régulation des interactions biologiques</tspan></text><text x="242.1818181818182" text-anchor="end" transform="translate(0,0) rotate(-90 242.1818181818182 377)" style="color:red;cursor:default;font-size:16px;fill:red;" y="377" opacity="1"><tspan>Interaction physiques et experimentales</tspan></text><text x="277.09090909090907" text-anchor="end" transform="translate(0,0) rotate(-90 277.09090909090907 377)" style="color:red;cursor:default;font-size:16px;fill:red;" y="377" opacity="1"><tspan>Régulation des risques naturels</tspan></text><text x="312" text-anchor="end" transform="translate(0,0) rotate(-90 312 377)" style="color:red;cursor:default;font-size:16px;fill:red;" y="377" opacity="1"><tspan>Nourriture et boissons</tspan></text><text x="346.9090909090909" text-anchor="end" transform="translate(0,0) rotate(-90 346.9090909090909 377)" style="color:red;cursor:default;font-size:16px;fill:red;" y="377" opacity="1">Matériaux</text><text x="381.8181818181818" text-anchor="end" transform="translate(0,0) rotate(-90 381.8181818181818 377)" style="color:red;cursor:default;font-size:16px;fill:red;" y="377" opacity="1">Energie</text><text x="416.7272727272727" text-anchor="end" transform="translate(0,0) rotate(-90 416.7272727272727 377)" style="color:red;cursor:default;font-size:16px;fill:red;" y="377" opacity="1"><tspan>Aspect symboliques et religieux</tspan></text><text x="451.6363636363636" text-anchor="end" transform="translate(0,0) rotate(-90 451.6363636363636 377)" style="color:red;cursor:default;font-size:16px;fill:red;" y="377" opacity="1"><tspan>Interactions et représentations intellectuelles </tspan></text><text x="486.5454545454545" text-anchor="end" transform="translate(0,0) rotate(-90 486.5454545454545 377)" style="color:red;cursor:default;font-size:16px;fill:red;" y="377" opacity="1"><tspan>Ressources naturelles</tspan></text></g><g class="highcharts-axis-labels highcharts-yaxis-labels" ><text x="105" text-anchor="end" style="width:100px;color:#606060;cursor:default;font-size:25px;fill:#606060;" y="377.5" opacity="1">0</text><text x="105" text-anchor="end" style="width:100px;color:#606060;cursor:default;font-size:25px;fill:#606060;" y="345.29999999999995" opacity="1">10</text><text x="105" text-anchor="end" style="width:100px;color:#606060;cursor:default;font-size:25px;fill:#606060;" y="313.1" opacity="1">20</text><text x="105" text-anchor="end" style="width:100px;color:#606060;cursor:default;font-size:25px;fill:#606060;" y="280.9" opacity="1">30</text><text x="105" text-anchor="end" style="width:100px;color:#606060;cursor:default;font-size:25px;fill:#606060;" y="248.70000000000005" opacity="1">40</text><text x="105" text-anchor="end" style="width:100px;color:#606060;cursor:default;font-size:25px;fill:#606060;" y="216.5" opacity="1">50</text><text x="105" text-anchor="end" style="width:100px;color:#606060;cursor:default;font-size:25px;fill:#606060;" y="184.29999999999995" opacity="1">60</text><text x="105" text-anchor="end" style="width:100px;color:#606060;cursor:default;font-size:25px;fill:#606060;" y="152.10000000000002" opacity="1">70</text><text x="105" text-anchor="end" style="width:100px;color:#606060;cursor:default;font-size:25px;fill:#606060;" y="119.89999999999998" opacity="1">80</text><text x="105" text-anchor="end" style="width:100px;color:#606060;cursor:default;font-size:25px;fill:#606060;" y="87.69999999999999" opacity="1">90</text><text x="105" text-anchor="end" style="width:100px;color:#606060;cursor:default;font-size:25px;fill:#606060;" y="55.5" opacity="1">100</text></g><g class="highcharts-tooltip"  style="cursor:default;padding:0;white-space:nowrap;" transform="translate(0,-9999)"><path fill="none" d="M 3 0 L 13 0 C 16 0 16 0 16 3 L 16 13 C 16 16 16 16 13 16 L 3 16 C 0 16 0 16 0 13 L 0 3 C 0 0 0 0 3 0"  stroke="black" stroke-opacity="0.049999999999999996" stroke-width="5" transform="translate(1, 1)"></path><path fill="none" d="M 3 0 L 13 0 C 16 0 16 0 16 3 L 16 13 C 16 16 16 16 13 16 L 3 16 C 0 16 0 16 0 13 L 0 3 C 0 0 0 0 3 0"  stroke="black" stroke-opacity="0.09999999999999999" stroke-width="3" transform="translate(1, 1)"></path><path fill="none" d="M 3 0 L 13 0 C 16 0 16 0 16 3 L 16 13 C 16 16 16 16 13 16 L 3 16 C 0 16 0 16 0 13 L 0 3 C 0 0 0 0 3 0"  stroke="black" stroke-opacity="0.15" stroke-width="1" transform="translate(1, 1)"></path><path fill="rgb(249, 249, 249)" fill-opacity=" .85" d="M 3 0 L 13 0 C 16 0 16 0 16 3 L 16 13 C 16 16 16 16 13 16 L 3 16 C 0 16 0 16 0 13 L 0 3 C 0 0 0 0 3 0"></path><text x="8"  style="font-size:12px;color:#333333;fill:#333333;" y="21"></text></g><text x="790" text-anchor="end"  style="cursor:pointer;color:#909090;font-size:9px;fill:#909090;" y="795">Highcharts.com</text></svg>