<svg xmlns:xlink="http://www.w3.org/1999/xlink" version="1.1" style="font-family:'lucida grande', 'lucida sans unicode', arial, helvetica, sans-serif;font-size:12px;" xmlns="http://www.w3.org/2000/svg" width="800" height="800"><desc>Created with Highcharts 4.0.3</desc><defs><clipPath id="highcharts-19"><rect x="0" y="0" width="489" height="409"></rect></clipPath></defs><rect x="0" y="0" width="800" height="800" strokeWidth="0" fill="#FFFFFF" class=" highcharts-background"></rect><g class="highcharts-grid" ></g><g class="highcharts-grid" ><path fill="none" d="M 120 46.5 L 609 46.5" stroke="#C0C0C0" stroke-width="1"  opacity="1"></path><path fill="none" d="M 120 88.5 L 609 88.5" stroke="#C0C0C0" stroke-width="1"  opacity="1"></path><path fill="none" d="M 120 129.5 L 609 129.5" stroke="#C0C0C0" stroke-width="1"  opacity="1"></path><path fill="none" d="M 120 170.5 L 609 170.5" stroke="#C0C0C0" stroke-width="1"  opacity="1"></path><path fill="none" d="M 120 211.5 L 609 211.5" stroke="#C0C0C0" stroke-width="1"  opacity="1"></path><path fill="none" d="M 120 252.5 L 609 252.5" stroke="#C0C0C0" stroke-width="1"  opacity="1"></path><path fill="none" d="M 120 292.5 L 609 292.5" stroke="#C0C0C0" stroke-width="1"  opacity="1"></path><path fill="none" d="M 120 333.5 L 609 333.5" stroke="#C0C0C0" stroke-width="1"  opacity="1"></path><path fill="none" d="M 120 374.5 L 609 374.5" stroke="#C0C0C0" stroke-width="1"  opacity="1"></path><path fill="none" d="M 120 415.5 L 609 415.5" stroke="#C0C0C0" stroke-width="1"  opacity="1"></path><path fill="none" d="M 120 456.5 L 609 456.5" stroke="#C0C0C0" stroke-width="1"  opacity="1"></path></g><g class="highcharts-axis" ><path fill="none" d="M 241.5 456 L 241.5 466" stroke="#C0D0E0" stroke-width="1" opacity="1"></path><path fill="none" d="M 302.5 456 L 302.5 466" stroke="#C0D0E0" stroke-width="1" opacity="1"></path><path fill="none" d="M 364.5 456 L 364.5 466" stroke="#C0D0E0" stroke-width="1" opacity="1"></path><path fill="none" d="M 425.5 456 L 425.5 466" stroke="#C0D0E0" stroke-width="1" opacity="1"></path><path fill="none" d="M 486.5 456 L 486.5 466" stroke="#C0D0E0" stroke-width="1" opacity="1"></path><path fill="none" d="M 547.5 456 L 547.5 466" stroke="#C0D0E0" stroke-width="1" opacity="1"></path><path fill="none" d="M 609.5 456 L 609.5 466" stroke="#C0D0E0" stroke-width="1" opacity="1"></path><path fill="none" d="M 180.5 456 L 180.5 466" stroke="#C0D0E0" stroke-width="1" opacity="1"></path><path fill="none" d="M 119.5 456 L 119.5 466" stroke="#C0D0E0" stroke-width="1" opacity="1"></path><path fill="none" d="M 120 456.5 L 609 456.5" stroke="#C0D0E0" stroke-width="1"  visibility="visible"></path></g><g class="highcharts-axis" ><text x="65"  text-anchor="middle" transform="translate(0,0) rotate(270 65 251.5)" class=" highcharts-yaxis-title" style="color:#707070;fill:#707070;" visibility="visible" y="251.5">Values</text></g><g class="highcharts-series-group" ><g class="highcharts-series" visibility="visible"  transform="translate(120,47) scale(1 1)" clip-path="url(#highcharts-19)"><rect x="15.5" y="164.5" width="30" height="41" fill="#7cb5ec" rx="0" ry="0" stroke="#FFFFFF" stroke-width="1"></rect><rect x="76.5" y="164.5" width="30" height="41" fill="#7cb5ec" rx="0" ry="0" stroke="#FFFFFF" stroke-width="1"></rect><rect x="137.5" y="164.5" width="30" height="41" fill="#7cb5ec" rx="0" ry="0" stroke="#FFFFFF" stroke-width="1"></rect><rect x="198.5" y="164.5" width="30" height="41" fill="#7cb5ec" rx="0" ry="0" stroke="#FFFFFF" stroke-width="1"></rect><rect x="259.5" y="123.5" width="30" height="82" fill="#7cb5ec" rx="0" ry="0" stroke="#FFFFFF" stroke-width="1"></rect><rect x="321.5" y="82.5" width="30" height="123" fill="#7cb5ec" rx="0" ry="0" stroke="#FFFFFF" stroke-width="1"></rect><rect x="382.5" y="82.5" width="30" height="123" fill="#7cb5ec" rx="0" ry="0" stroke="#FFFFFF" stroke-width="1"></rect><rect x="443.5" y="41.5" width="30" height="164" fill="#7cb5ec" rx="0" ry="0" stroke="#FFFFFF" stroke-width="1"></rect></g><g class="highcharts-markers" visibility="visible"  transform="translate(120,47) scale(1 1)" clip-path="none"></g></g><text x="400" text-anchor="middle" class="highcharts-title"  style="color:#333333;font-size:18px;fill:#333333;width:736px;" y="25"><tspan>Les impacts avérés</tspan></text><g class="highcharts-legend"  transform="translate(629,386)"><g ><g><g class="highcharts-legend-item"  transform="translate(8,3)"><text x="21" style="color:#000000;font-size:16px;font-weight:bold;cursor:pointer;fill:#000000;" text-anchor="start"  y="19"><tspan>Impacts avérés</tspan></text><rect x="0" y="8" width="16" height="12"  fill="#7cb5ec"></rect></g></g></g></g><g class="highcharts-axis-labels highcharts-xaxis-labels" ><text x="150.5625" text-anchor="end" transform="translate(0,0) rotate(-90 150.5625 464)" style="color:red;cursor:default;font-size:16px;fill:red;" y="464" opacity="1"><tspan> Régulation des risques naturels</tspan></text><text x="211.6875" text-anchor="end" transform="translate(0,0) rotate(-90 211.6875 464)" style="color:red;cursor:default;font-size:16px;fill:red;" y="464" opacity="1"><tspan>Energie renouvelable abiotique</tspan></text><text x="272.8125" text-anchor="end" transform="translate(0,0) rotate(-90 272.8125 464)" style="color:red;cursor:default;font-size:16px;fill:red;" y="464" opacity="1">Religieux</text><text x="333.9375" text-anchor="end" transform="translate(0,0) rotate(-90 333.9375 464)" style="color:red;cursor:default;font-size:16px;fill:red;" y="464" opacity="1"><tspan>Représentations Esthétiques et culturels</tspan></text><text x="395.0625" text-anchor="end" transform="translate(0,0) rotate(-90 395.0625 464)" style="color:red;cursor:default;font-size:16px;fill:red;" y="464" opacity="1"><tspan>Énergie non renouvelable abiotique</tspan></text><text x="456.1875" text-anchor="end" transform="translate(0,0) rotate(-90 456.1875 464)" style="color:red;cursor:default;font-size:16px;fill:red;" y="464" opacity="1"><tspan>Matières minérales et métalliques</tspan></text><text x="517.3125" text-anchor="end" transform="translate(0,0) rotate(-90 517.3125 464)" style="color:red;cursor:default;font-size:16px;fill:red;" y="464" opacity="1"><tspan>Matières provenant du bois</tspan></text><text x="578.4375" text-anchor="end" transform="translate(0,0) rotate(-90 578.4375 464)" style="color:red;cursor:default;font-size:16px;fill:red;" y="464" opacity="1"><tspan>Énergie renouvelable issue du vivant</tspan></text></g><g class="highcharts-axis-labels highcharts-yaxis-labels" ><text x="105" text-anchor="end" style="width:100px;color:#606060;cursor:default;font-size:25px;fill:#606060;" y="464.5" opacity="1">-5</text><text x="105" text-anchor="end" style="width:100px;color:#606060;cursor:default;font-size:25px;fill:#606060;" y="423.6" opacity="1">-4</text><text x="105" text-anchor="end" style="width:100px;color:#606060;cursor:default;font-size:25px;fill:#606060;" y="382.70000000000005" opacity="1">-3</text><text x="105" text-anchor="end" style="width:100px;color:#606060;cursor:default;font-size:25px;fill:#606060;" y="341.79999999999995" opacity="1">-2</text><text x="105" text-anchor="end" style="width:100px;color:#606060;cursor:default;font-size:25px;fill:#606060;" y="300.9" opacity="1">-1</text><text x="105" text-anchor="end" style="width:100px;color:#606060;cursor:default;font-size:25px;fill:#606060;" y="260" opacity="1">0</text><text x="105" text-anchor="end" style="width:100px;color:#606060;cursor:default;font-size:25px;fill:#606060;" y="219.10000000000002" opacity="1">1</text><text x="105" text-anchor="end" style="width:100px;color:#606060;cursor:default;font-size:25px;fill:#606060;" y="178.20000000000005" opacity="1">2</text><text x="105" text-anchor="end" style="width:100px;color:#606060;cursor:default;font-size:25px;fill:#606060;" y="137.3" opacity="1">3</text><text x="105" text-anchor="end" style="width:100px;color:#606060;cursor:default;font-size:25px;fill:#606060;" y="96.40000000000003" opacity="1">4</text><text x="105" text-anchor="end" style="width:100px;color:#606060;cursor:default;font-size:25px;fill:#606060;" y="55.5" opacity="1">5</text></g><g class="highcharts-tooltip"  style="cursor:default;padding:0;white-space:nowrap;" transform="translate(0,-9999)"><path fill="none" d="M 3 0 L 13 0 C 16 0 16 0 16 3 L 16 13 C 16 16 16 16 13 16 L 3 16 C 0 16 0 16 0 13 L 0 3 C 0 0 0 0 3 0"  stroke="black" stroke-opacity="0.049999999999999996" stroke-width="5" transform="translate(1, 1)"></path><path fill="none" d="M 3 0 L 13 0 C 16 0 16 0 16 3 L 16 13 C 16 16 16 16 13 16 L 3 16 C 0 16 0 16 0 13 L 0 3 C 0 0 0 0 3 0"  stroke="black" stroke-opacity="0.09999999999999999" stroke-width="3" transform="translate(1, 1)"></path><path fill="none" d="M 3 0 L 13 0 C 16 0 16 0 16 3 L 16 13 C 16 16 16 16 13 16 L 3 16 C 0 16 0 16 0 13 L 0 3 C 0 0 0 0 3 0"  stroke="black" stroke-opacity="0.15" stroke-width="1" transform="translate(1, 1)"></path><path fill="rgb(249, 249, 249)" fill-opacity=" .85" d="M 3 0 L 13 0 C 16 0 16 0 16 3 L 16 13 C 16 16 16 16 13 16 L 3 16 C 0 16 0 16 0 13 L 0 3 C 0 0 0 0 3 0"></path><text x="8"  style="font-size:12px;color:#333333;fill:#333333;" y="21"></text></g><text x="790" text-anchor="end"  style="cursor:pointer;color:#909090;font-size:9px;fill:#909090;" y="795">Highcharts.com</text></svg>