<svg xmlns:xlink="http://www.w3.org/1999/xlink" version="1.1" style="font-family:'lucida grande', 'lucida sans unicode', arial, helvetica, sans-serif;font-size:12px;" xmlns="http://www.w3.org/2000/svg" width="800" height="800"><desc>Created with Highcharts 4.0.3</desc><defs><clipPath id="highcharts-21"><rect x="0" y="0" width="457" height="366"></rect></clipPath></defs><rect x="0" y="0" width="800" height="800" strokeWidth="0" fill="#FFFFFF" class=" highcharts-background"></rect><g class="highcharts-grid" ></g><g class="highcharts-grid" ><path fill="none" d="M 120 46.5 L 577 46.5" stroke="#C0C0C0" stroke-width="1"  opacity="1"></path><path fill="none" d="M 120 84.5 L 577 84.5" stroke="#C0C0C0" stroke-width="1"  opacity="1"></path><path fill="none" d="M 120 120.5 L 577 120.5" stroke="#C0C0C0" stroke-width="1"  opacity="1"></path><path fill="none" d="M 120 157.5 L 577 157.5" stroke="#C0C0C0" stroke-width="1"  opacity="1"></path><path fill="none" d="M 120 193.5 L 577 193.5" stroke="#C0C0C0" stroke-width="1"  opacity="1"></path><path fill="none" d="M 120 230.5 L 577 230.5" stroke="#C0C0C0" stroke-width="1"  opacity="1"></path><path fill="none" d="M 120 267.5 L 577 267.5" stroke="#C0C0C0" stroke-width="1"  opacity="1"></path><path fill="none" d="M 120 303.5 L 577 303.5" stroke="#C0C0C0" stroke-width="1"  opacity="1"></path><path fill="none" d="M 120 340.5 L 577 340.5" stroke="#C0C0C0" stroke-width="1"  opacity="1"></path><path fill="none" d="M 120 376.5 L 577 376.5" stroke="#C0C0C0" stroke-width="1"  opacity="1"></path><path fill="none" d="M 120 413.5 L 577 413.5" stroke="#C0C0C0" stroke-width="1"  opacity="1"></path></g><g class="highcharts-axis" ><path fill="none" d="M 302.5 413 L 302.5 423" stroke="#C0D0E0" stroke-width="1" opacity="1"></path><path fill="none" d="M 393.5 413 L 393.5 423" stroke="#C0D0E0" stroke-width="1" opacity="1"></path><path fill="none" d="M 485.5 413 L 485.5 423" stroke="#C0D0E0" stroke-width="1" opacity="1"></path><path fill="none" d="M 577.5 413 L 577.5 423" stroke="#C0D0E0" stroke-width="1" opacity="1"></path><path fill="none" d="M 210.5 413 L 210.5 423" stroke="#C0D0E0" stroke-width="1" opacity="1"></path><path fill="none" d="M 119.5 413 L 119.5 423" stroke="#C0D0E0" stroke-width="1" opacity="1"></path><path fill="none" d="M 120 413.5 L 577 413.5" stroke="#C0D0E0" stroke-width="1"  visibility="visible"></path></g><g class="highcharts-axis" ><text x="65"  text-anchor="middle" transform="translate(0,0) rotate(270 65 230)" class=" highcharts-yaxis-title" style="color:#707070;fill:#707070;" visibility="visible" y="230">Values</text></g><g class="highcharts-series-group" ><g class="highcharts-series" visibility="visible"  transform="translate(120,47) scale(1 1)" clip-path="url(#highcharts-21)"><rect x="23.5" y="146.5" width="44" height="37" fill="#7cb5ec" rx="0" ry="0" stroke="#FFFFFF" stroke-width="1"></rect><rect x="114.5" y="110.5" width="44" height="73" fill="#7cb5ec" rx="0" ry="0" stroke="#FFFFFF" stroke-width="1"></rect><rect x="206.5" y="73.5" width="44" height="110" fill="#7cb5ec" rx="0" ry="0" stroke="#FFFFFF" stroke-width="1"></rect><rect x="297.5" y="73.5" width="44" height="110" fill="#7cb5ec" rx="0" ry="0" stroke="#FFFFFF" stroke-width="1"></rect><rect x="388.5" y="73.5" width="44" height="110" fill="#7cb5ec" rx="0" ry="0" stroke="#FFFFFF" stroke-width="1"></rect></g><g class="highcharts-markers" visibility="visible"  transform="translate(120,47) scale(1 1)" clip-path="none"></g></g><text x="400" text-anchor="middle" class="highcharts-title"  style="color:#333333;font-size:18px;fill:#333333;width:736px;" y="25"><tspan>Les impacts potentiels</tspan></text><g class="highcharts-legend"  transform="translate(597,386)"><g ><g><g class="highcharts-legend-item"  transform="translate(8,3)"><text x="21" style="color:#000000;font-size:16px;font-weight:bold;cursor:pointer;fill:#000000;" text-anchor="start"  y="19"><tspan>Impacts potentiels</tspan></text><rect x="0" y="8" width="16" height="12"  fill="#7cb5ec"></rect></g></g></g></g><g class="highcharts-axis-labels highcharts-xaxis-labels" ><text x="165.7" text-anchor="end" transform="translate(0,0) rotate(-90 165.7 421)" style="color:red;cursor:default;font-size:16px;fill:red;" y="421" opacity="1"><tspan>Énergie non renouvelable abiotique</tspan></text><text x="257.1" text-anchor="end" transform="translate(0,0) rotate(-90 257.1 421)" style="color:red;cursor:default;font-size:16px;fill:red;" y="421" opacity="1"><tspan>Régulation des flux hydriques</tspan></text><text x="348.5" text-anchor="end" transform="translate(0,0) rotate(-90 348.5 421)" style="color:red;cursor:default;font-size:16px;fill:red;" y="421" opacity="1"><tspan> Interactions et représentations intellectuelles </tspan></text><text x="439.90000000000003" text-anchor="end" transform="translate(0,0) rotate(-90 439.90000000000003 421)" style="color:red;cursor:default;font-size:16px;fill:red;" y="421" opacity="1"><tspan>Expérience et plaisir récréatifs</tspan></text><text x="531.3" text-anchor="end" transform="translate(0,0) rotate(-90 531.3 421)" style="color:red;cursor:default;font-size:16px;fill:red;" y="421" opacity="1"><tspan>Représentations Esthétiques et culturels</tspan></text></g><g class="highcharts-axis-labels highcharts-yaxis-labels" ><text x="105" text-anchor="end" style="width:100px;color:#606060;cursor:default;font-size:25px;fill:#606060;" y="421.5" opacity="1">-5</text><text x="105" text-anchor="end" style="width:100px;color:#606060;cursor:default;font-size:25px;fill:#606060;" y="384.9" opacity="1">-4</text><text x="105" text-anchor="end" style="width:100px;color:#606060;cursor:default;font-size:25px;fill:#606060;" y="348.29999999999995" opacity="1">-3</text><text x="105" text-anchor="end" style="width:100px;color:#606060;cursor:default;font-size:25px;fill:#606060;" y="311.70000000000005" opacity="1">-2</text><text x="105" text-anchor="end" style="width:100px;color:#606060;cursor:default;font-size:25px;fill:#606060;" y="275.1" opacity="1">-1</text><text x="105" text-anchor="end" style="width:100px;color:#606060;cursor:default;font-size:25px;fill:#606060;" y="238.5" opacity="1">0</text><text x="105" text-anchor="end" style="width:100px;color:#606060;cursor:default;font-size:25px;fill:#606060;" y="201.89999999999998" opacity="1">1</text><text x="105" text-anchor="end" style="width:100px;color:#606060;cursor:default;font-size:25px;fill:#606060;" y="165.29999999999995" opacity="1">2</text><text x="105" text-anchor="end" style="width:100px;color:#606060;cursor:default;font-size:25px;fill:#606060;" y="128.7" opacity="1">3</text><text x="105" text-anchor="end" style="width:100px;color:#606060;cursor:default;font-size:25px;fill:#606060;" y="92.09999999999997" opacity="1">4</text><text x="105" text-anchor="end" style="width:100px;color:#606060;cursor:default;font-size:25px;fill:#606060;" y="55.5" opacity="1">5</text></g><g class="highcharts-tooltip"  style="cursor:default;padding:0;white-space:nowrap;" transform="translate(0,-9999)"><path fill="none" d="M 3 0 L 13 0 C 16 0 16 0 16 3 L 16 13 C 16 16 16 16 13 16 L 3 16 C 0 16 0 16 0 13 L 0 3 C 0 0 0 0 3 0"  stroke="black" stroke-opacity="0.049999999999999996" stroke-width="5" transform="translate(1, 1)"></path><path fill="none" d="M 3 0 L 13 0 C 16 0 16 0 16 3 L 16 13 C 16 16 16 16 13 16 L 3 16 C 0 16 0 16 0 13 L 0 3 C 0 0 0 0 3 0"  stroke="black" stroke-opacity="0.09999999999999999" stroke-width="3" transform="translate(1, 1)"></path><path fill="none" d="M 3 0 L 13 0 C 16 0 16 0 16 3 L 16 13 C 16 16 16 16 13 16 L 3 16 C 0 16 0 16 0 13 L 0 3 C 0 0 0 0 3 0"  stroke="black" stroke-opacity="0.15" stroke-width="1" transform="translate(1, 1)"></path><path fill="rgb(249, 249, 249)" fill-opacity=" .85" d="M 3 0 L 13 0 C 16 0 16 0 16 3 L 16 13 C 16 16 16 16 13 16 L 3 16 C 0 16 0 16 0 13 L 0 3 C 0 0 0 0 3 0"></path><text x="8"  style="font-size:12px;color:#333333;fill:#333333;" y="21"></text></g><text x="790" text-anchor="end"  style="cursor:pointer;color:#909090;font-size:9px;fill:#909090;" y="795">Highcharts.com</text></svg>