<svg xmlns:xlink="http://www.w3.org/1999/xlink" version="1.1" style="font-family:'lucida grande', 'lucida sans unicode', arial, helvetica, sans-serif;font-size:12px;" xmlns="http://www.w3.org/2000/svg" width="800" height="800"><desc>Created with Highcharts 4.0.3</desc><defs><clipPath id="highcharts-31"><rect x="0" y="0" width="563" height="368"></rect></clipPath></defs><rect x="0" y="0" width="800" height="800" strokeWidth="0" fill="#FFFFFF" class=" highcharts-background"></rect><g class="highcharts-grid" ></g><g class="highcharts-grid" ><path fill="none" d="M 120 68.5 L 683 68.5" stroke="#C0C0C0" stroke-width="1"  opacity="1"></path><path fill="none" d="M 120 106.5 L 683 106.5" stroke="#C0C0C0" stroke-width="1"  opacity="1"></path><path fill="none" d="M 120 143.5 L 683 143.5" stroke="#C0C0C0" stroke-width="1"  opacity="1"></path><path fill="none" d="M 120 179.5 L 683 179.5" stroke="#C0C0C0" stroke-width="1"  opacity="1"></path><path fill="none" d="M 120 216.5 L 683 216.5" stroke="#C0C0C0" stroke-width="1"  opacity="1"></path><path fill="none" d="M 120 253.5 L 683 253.5" stroke="#C0C0C0" stroke-width="1"  opacity="1"></path><path fill="none" d="M 120 290.5 L 683 290.5" stroke="#C0C0C0" stroke-width="1"  opacity="1"></path><path fill="none" d="M 120 327.5 L 683 327.5" stroke="#C0C0C0" stroke-width="1"  opacity="1"></path><path fill="none" d="M 120 363.5 L 683 363.5" stroke="#C0C0C0" stroke-width="1"  opacity="1"></path><path fill="none" d="M 120 400.5 L 683 400.5" stroke="#C0C0C0" stroke-width="1"  opacity="1"></path><path fill="none" d="M 120 437.5 L 683 437.5" stroke="#C0C0C0" stroke-width="1"  opacity="1"></path></g><g class="highcharts-axis" ><path fill="none" d="M 401.5 437 L 401.5 447" stroke="#C0D0E0" stroke-width="1" opacity="1"></path><path fill="none" d="M 541.5 437 L 541.5 447" stroke="#C0D0E0" stroke-width="1" opacity="1"></path><path fill="none" d="M 683.5 437 L 683.5 447" stroke="#C0D0E0" stroke-width="1" opacity="1"></path><path fill="none" d="M 260.5 437 L 260.5 447" stroke="#C0D0E0" stroke-width="1" opacity="1"></path><path fill="none" d="M 119.5 437 L 119.5 447" stroke="#C0D0E0" stroke-width="1" opacity="1"></path><path fill="none" d="M 120 437.5 L 683 437.5" stroke="#C0D0E0" stroke-width="1"  visibility="visible"></path></g><g class="highcharts-axis" ><text x="47"  text-anchor="middle" transform="translate(0,0) rotate(270 47 253)" class=" highcharts-yaxis-title" style="color:#707070;fill:#707070;" visibility="visible" y="253"><tspan>Importance relative (%) – paiements pour IDBSE</tspan></text></g><g class="highcharts-series-group" ><g class="highcharts-series" visibility="visible"  transform="translate(120,69) scale(1 1)" clip-path="url(#highcharts-31)"><rect x="36.5" y="331.5" width="68" height="37" fill="#7cb5ec" rx="0" ry="0" stroke="#FFFFFF" stroke-width="1"></rect><rect x="176.5" y="350.5" width="68" height="18" fill="#7cb5ec" rx="0" ry="0" stroke="#FFFFFF" stroke-width="1"></rect><rect x="317.5" y="350.5" width="68" height="18" fill="#7cb5ec" rx="0" ry="0" stroke="#FFFFFF" stroke-width="1"></rect><rect x="458.5" y="74.5" width="68" height="294" fill="#7cb5ec" rx="0" ry="0" stroke="#FFFFFF" stroke-width="1"></rect></g><g class="highcharts-markers" visibility="visible"  transform="translate(120,69) scale(1 1)" clip-path="none"></g></g><text x="400" text-anchor="middle" class="highcharts-title"  style="color:#333333;font-size:18px;fill:#333333;width:736px;" y="25"><tspan>Présente le nombre de paiements / nombre d’IDBSE identifiées dans chaque</tspan><tspan dy="22" x="400">catégorie</tspan></text><g class="highcharts-legend"  transform="translate(703,386)"><g ><g><g class="highcharts-legend-item"  transform="translate(8,3)"><text x="21" style="color:#000000;font-size:16px;font-weight:bold;cursor:pointer;fill:#000000;" text-anchor="start"  y="19">money</text><rect x="0" y="8" width="16" height="12"  fill="#7cb5ec"></rect></g></g></g></g><g class="highcharts-axis-labels highcharts-xaxis-labels" ><text x="190.375" text-anchor="end" transform="translate(0,0) rotate(-90 190.375 445)" style="color:red;cursor:default;font-size:16px;fill:red;" y="445" opacity="1">Taxe</text><text x="331.125" text-anchor="end" transform="translate(0,0) rotate(-90 331.125 445)" style="color:red;cursor:default;font-size:16px;fill:red;" y="445" opacity="1"><tspan>Paiement pour services environnementaux</tspan></text><text x="471.875" text-anchor="end" transform="translate(0,0) rotate(-90 471.875 445)" style="color:red;cursor:default;font-size:16px;fill:red;" y="445" opacity="1">Redevance</text><text x="612.625" text-anchor="end" transform="translate(0,0) rotate(-90 612.625 445)" style="color:red;cursor:default;font-size:16px;fill:red;" y="445" opacity="1">Autre</text></g><g class="highcharts-axis-labels highcharts-yaxis-labels" ><text x="105" text-anchor="end" style="width:100px;color:#606060;cursor:default;font-size:25px;fill:#606060;" y="445.5" opacity="1">0</text><text x="105" text-anchor="end" style="width:100px;color:#606060;cursor:default;font-size:25px;fill:#606060;" y="408.70000000000005" opacity="1">10</text><text x="105" text-anchor="end" style="width:100px;color:#606060;cursor:default;font-size:25px;fill:#606060;" y="371.9" opacity="1">20</text><text x="105" text-anchor="end" style="width:100px;color:#606060;cursor:default;font-size:25px;fill:#606060;" y="335.1" opacity="1">30</text><text x="105" text-anchor="end" style="width:100px;color:#606060;cursor:default;font-size:25px;fill:#606060;" y="298.29999999999995" opacity="1">40</text><text x="105" text-anchor="end" style="width:100px;color:#606060;cursor:default;font-size:25px;fill:#606060;" y="261.5" opacity="1">50</text><text x="105" text-anchor="end" style="width:100px;color:#606060;cursor:default;font-size:25px;fill:#606060;" y="224.70000000000005" opacity="1">60</text><text x="105" text-anchor="end" style="width:100px;color:#606060;cursor:default;font-size:25px;fill:#606060;" y="187.89999999999998" opacity="1">70</text><text x="105" text-anchor="end" style="width:100px;color:#606060;cursor:default;font-size:25px;fill:#606060;" y="151.09999999999997" opacity="1">80</text><text x="105" text-anchor="end" style="width:100px;color:#606060;cursor:default;font-size:25px;fill:#606060;" y="114.30000000000001" opacity="1">90</text><text x="105" text-anchor="end" style="width:100px;color:#606060;cursor:default;font-size:25px;fill:#606060;" y="77.5" opacity="1">100</text></g><g class="highcharts-tooltip"  style="cursor:default;padding:0;white-space:nowrap;" transform="translate(0,-9999)"><path fill="none" d="M 3 0 L 13 0 C 16 0 16 0 16 3 L 16 13 C 16 16 16 16 13 16 L 3 16 C 0 16 0 16 0 13 L 0 3 C 0 0 0 0 3 0"  stroke="black" stroke-opacity="0.049999999999999996" stroke-width="5" transform="translate(1, 1)"></path><path fill="none" d="M 3 0 L 13 0 C 16 0 16 0 16 3 L 16 13 C 16 16 16 16 13 16 L 3 16 C 0 16 0 16 0 13 L 0 3 C 0 0 0 0 3 0"  stroke="black" stroke-opacity="0.09999999999999999" stroke-width="3" transform="translate(1, 1)"></path><path fill="none" d="M 3 0 L 13 0 C 16 0 16 0 16 3 L 16 13 C 16 16 16 16 13 16 L 3 16 C 0 16 0 16 0 13 L 0 3 C 0 0 0 0 3 0"  stroke="black" stroke-opacity="0.15" stroke-width="1" transform="translate(1, 1)"></path><path fill="rgb(249, 249, 249)" fill-opacity=" .85" d="M 3 0 L 13 0 C 16 0 16 0 16 3 L 16 13 C 16 16 16 16 13 16 L 3 16 C 0 16 0 16 0 13 L 0 3 C 0 0 0 0 3 0"></path><text x="8"  style="font-size:12px;color:#333333;fill:#333333;" y="21"></text></g><text x="790" text-anchor="end"  style="cursor:pointer;color:#909090;font-size:9px;fill:#909090;" y="795">Highcharts.com</text></svg>