<svg xmlns:xlink="http://www.w3.org/1999/xlink" version="1.1" style="font-family:'lucida grande', 'lucida sans unicode', arial, helvetica, sans-serif;font-size:12px;" xmlns="http://www.w3.org/2000/svg" width="800" height="800"><desc>Created with Highcharts 4.0.3</desc><defs><clipPath id="highcharts-29"><rect x="0" y="0" width="464" height="322"></rect></clipPath></defs><rect x="0" y="0" width="800" height="800" strokeWidth="0" fill="#FFFFFF" class=" highcharts-background"></rect><g class="highcharts-grid" ></g><g class="highcharts-grid" ><path fill="none" d="M 120 46.5 L 584 46.5" stroke="#C0C0C0" stroke-width="1"  opacity="1"></path><path fill="none" d="M 120 79.5 L 584 79.5" stroke="#C0C0C0" stroke-width="1"  opacity="1"></path><path fill="none" d="M 120 111.5 L 584 111.5" stroke="#C0C0C0" stroke-width="1"  opacity="1"></path><path fill="none" d="M 120 144.5 L 584 144.5" stroke="#C0C0C0" stroke-width="1"  opacity="1"></path><path fill="none" d="M 120 176.5 L 584 176.5" stroke="#C0C0C0" stroke-width="1"  opacity="1"></path><path fill="none" d="M 120 208.5 L 584 208.5" stroke="#C0C0C0" stroke-width="1"  opacity="1"></path><path fill="none" d="M 120 240.5 L 584 240.5" stroke="#C0C0C0" stroke-width="1"  opacity="1"></path><path fill="none" d="M 120 272.5 L 584 272.5" stroke="#C0C0C0" stroke-width="1"  opacity="1"></path><path fill="none" d="M 120 305.5 L 584 305.5" stroke="#C0C0C0" stroke-width="1"  opacity="1"></path><path fill="none" d="M 120 337.5 L 584 337.5" stroke="#C0C0C0" stroke-width="1"  opacity="1"></path><path fill="none" d="M 120 369.5 L 584 369.5" stroke="#C0C0C0" stroke-width="1"  opacity="1"></path></g><g class="highcharts-axis" ><path fill="none" d="M 203.5 369 L 203.5 379" stroke="#C0D0E0" stroke-width="1" opacity="1"></path><path fill="none" d="M 246.5 369 L 246.5 379" stroke="#C0D0E0" stroke-width="1" opacity="1"></path><path fill="none" d="M 288.5 369 L 288.5 379" stroke="#C0D0E0" stroke-width="1" opacity="1"></path><path fill="none" d="M 330.5 369 L 330.5 379" stroke="#C0D0E0" stroke-width="1" opacity="1"></path><path fill="none" d="M 372.5 369 L 372.5 379" stroke="#C0D0E0" stroke-width="1" opacity="1"></path><path fill="none" d="M 414.5 369 L 414.5 379" stroke="#C0D0E0" stroke-width="1" opacity="1"></path><path fill="none" d="M 456.5 369 L 456.5 379" stroke="#C0D0E0" stroke-width="1" opacity="1"></path><path fill="none" d="M 499.5 369 L 499.5 379" stroke="#C0D0E0" stroke-width="1" opacity="1"></path><path fill="none" d="M 541.5 369 L 541.5 379" stroke="#C0D0E0" stroke-width="1" opacity="1"></path><path fill="none" d="M 584.5 369 L 584.5 379" stroke="#C0D0E0" stroke-width="1" opacity="1"></path><path fill="none" d="M 161.5 369 L 161.5 379" stroke="#C0D0E0" stroke-width="1" opacity="1"></path><path fill="none" d="M 119.5 369 L 119.5 379" stroke="#C0D0E0" stroke-width="1" opacity="1"></path><path fill="none" d="M 120 369.5 L 584 369.5" stroke="#C0D0E0" stroke-width="1"  visibility="visible"></path></g><g class="highcharts-axis" ><text x="33"  text-anchor="middle" transform="translate(0,0) rotate(270 33 208)" class=" highcharts-yaxis-title" style="color:#707070;fill:#707070;" visibility="visible" y="208">Pourcentage(%)</text></g><g class="highcharts-series-group" ><g class="highcharts-series" visibility="visible"  transform="translate(120,47) scale(1 1)" clip-path="url(#highcharts-29)"><rect x="9.5" y="80.5" width="11" height="81" fill="#7cb5ec" rx="0" ry="0" stroke="#FFFFFF" stroke-width="1"></rect><rect x="51.5" y="-0.5" width="11" height="162" fill="#7cb5ec" rx="0" ry="0" stroke="#FFFFFF" stroke-width="1"></rect><rect x="93.5" y="80.5" width="11" height="81" fill="#7cb5ec" rx="0" ry="0" stroke="#FFFFFF" stroke-width="1"></rect><rect x="135.5" y="161.5" width="11" height="0" fill="#7cb5ec" rx="0" ry="0" stroke="#FFFFFF" stroke-width="1"></rect><rect x="177.5" y="161.5" width="11" height="0" fill="#7cb5ec" rx="0" ry="0" stroke="#FFFFFF" stroke-width="1"></rect><rect x="220.5" y="161.5" width="11" height="0" fill="#7cb5ec" rx="0" ry="0" stroke="#FFFFFF" stroke-width="1"></rect><rect x="262.5" y="161.5" width="11" height="0" fill="#7cb5ec" rx="0" ry="0" stroke="#FFFFFF" stroke-width="1"></rect><rect x="304.5" y="161.5" width="11" height="0" fill="#7cb5ec" rx="0" ry="0" stroke="#FFFFFF" stroke-width="1"></rect><rect x="346.5" y="80.5" width="11" height="81" fill="#7cb5ec" rx="0" ry="0" stroke="#FFFFFF" stroke-width="1"></rect><rect x="388.5" y="80.5" width="11" height="81" fill="#7cb5ec" rx="0" ry="0" stroke="#FFFFFF" stroke-width="1"></rect><rect x="431.5" y="-0.5" width="11" height="162" fill="#7cb5ec" rx="0" ry="0" stroke="#FFFFFF" stroke-width="1"></rect></g><g class="highcharts-markers" visibility="visible"  transform="translate(120,47) scale(1 1)" clip-path="none"></g><g class="highcharts-series" visibility="visible"  transform="translate(120,47) scale(1 1)" clip-path="url(#highcharts-29)"><rect x="21.5" y="161.5" width="11" height="0" fill="#434348" rx="0" ry="0" stroke="#FFFFFF" stroke-width="1"></rect><rect x="64.5" y="161.5" width="11" height="0" fill="#434348" rx="0" ry="0" stroke="#FFFFFF" stroke-width="1"></rect><rect x="106.5" y="161.5" width="11" height="0" fill="#434348" rx="0" ry="0" stroke="#FFFFFF" stroke-width="1"></rect><rect x="148.5" y="161.5" width="11" height="0" fill="#434348" rx="0" ry="0" stroke="#FFFFFF" stroke-width="1"></rect><rect x="190.5" y="161.5" width="11" height="81" fill="#434348" rx="0" ry="0" stroke="#FFFFFF" stroke-width="1"></rect><rect x="232.5" y="161.5" width="11" height="0" fill="#434348" rx="0" ry="0" stroke="#FFFFFF" stroke-width="1"></rect><rect x="274.5" y="161.5" width="11" height="0" fill="#434348" rx="0" ry="0" stroke="#FFFFFF" stroke-width="1"></rect><rect x="317.5" y="161.5" width="11" height="0" fill="#434348" rx="0" ry="0" stroke="#FFFFFF" stroke-width="1"></rect><rect x="359.5" y="161.5" width="11" height="81" fill="#434348" rx="0" ry="0" stroke="#FFFFFF" stroke-width="1"></rect><rect x="401.5" y="161.5" width="11" height="0" fill="#434348" rx="0" ry="0" stroke="#FFFFFF" stroke-width="1"></rect><rect x="443.5" y="161.5" width="11" height="81" fill="#434348" rx="0" ry="0" stroke="#FFFFFF" stroke-width="1"></rect></g><g class="highcharts-markers" visibility="visible"  transform="translate(120,47) scale(1 1)" clip-path="none"></g></g><text x="400" text-anchor="middle" class="highcharts-title"  style="color:#333333;font-size:18px;fill:#333333;width:736px;" y="25"><tspan>I.4.	Les paiements pour bénéficier des BSE</tspan></text><g class="highcharts-legend"  transform="translate(604,376)"><g ><g><g class="highcharts-legend-item"  transform="translate(8,3)"><text x="21" style="color:#000000;font-size:16px;font-weight:bold;cursor:pointer;fill:#000000;" text-anchor="start"  y="19"><tspan>argent sans perte</tspan></text><rect x="0" y="8" width="16" height="12"  fill="#7cb5ec"></rect></g><g class="highcharts-legend-item"  transform="translate(8,23)"><text x="21" y="19" style="color:#000000;font-size:16px;font-weight:bold;cursor:pointer;fill:#000000;" text-anchor="start" ><tspan>pertre d'argent</tspan></text><rect x="0" y="8" width="16" height="12"  fill="#434348"></rect></g></g></g></g><g class="highcharts-axis-labels highcharts-xaxis-labels" ><text x="141.0909090909091" text-anchor="end" transform="translate(0,0) rotate(-90 141.0909090909091 377)" style="color:red;cursor:default;font-size:16px;fill:red;" y="377" opacity="1"><tspan>Régulation des processus d'assimilation de déchets</tspan></text><text x="183.27272727272728" text-anchor="end" transform="translate(0,0) rotate(-90 183.27272727272728 377)" style="color:red;cursor:default;font-size:16px;fill:red;" y="377" opacity="1"><tspan>Régulation des conditions biophysiques</tspan></text><text x="225.45454545454547" text-anchor="end" transform="translate(0,0) rotate(-90 225.45454545454547 377)" style="color:red;cursor:default;font-size:16px;fill:red;" y="377" opacity="1"><tspan>Régulation des interactions biologiques</tspan></text><text x="267.6363636363637" text-anchor="end" transform="translate(0,0) rotate(-90 267.6363636363637 377)" style="color:red;cursor:default;font-size:16px;fill:red;" y="377" opacity="1"><tspan>Interaction physiques et experimentales</tspan></text><text x="309.8181818181818" text-anchor="end" transform="translate(0,0) rotate(-90 309.8181818181818 377)" style="color:red;cursor:default;font-size:16px;fill:red;" y="377" opacity="1"><tspan>Régulation des risques naturels</tspan></text><text x="352.00000000000006" text-anchor="end" transform="translate(0,0) rotate(-90 352.00000000000006 377)" style="color:red;cursor:default;font-size:16px;fill:red;" y="377" opacity="1"><tspan>Nourriture et boissons</tspan></text><text x="394.1818181818182" text-anchor="end" transform="translate(0,0) rotate(-90 394.1818181818182 377)" style="color:red;cursor:default;font-size:16px;fill:red;" y="377" opacity="1">Matériaux</text><text x="436.3636363636364" text-anchor="end" transform="translate(0,0) rotate(-90 436.3636363636364 377)" style="color:red;cursor:default;font-size:16px;fill:red;" y="377" opacity="1">Energie</text><text x="478.5454545454545" text-anchor="end" transform="translate(0,0) rotate(-90 478.5454545454545 377)" style="color:red;cursor:default;font-size:16px;fill:red;" y="377" opacity="1"><tspan>Aspect symboliques et religieux</tspan></text><text x="520.7272727272726" text-anchor="end" transform="translate(0,0) rotate(-90 520.7272727272726 377)" style="color:red;cursor:default;font-size:16px;fill:red;" y="377" opacity="1"><tspan>Interactions et représentations intellectuelles </tspan></text><text x="562.9090909090909" text-anchor="end" transform="translate(0,0) rotate(-90 562.9090909090909 377)" style="color:red;cursor:default;font-size:16px;fill:red;" y="377" opacity="1"><tspan>Ressources naturelles</tspan></text></g><g class="highcharts-axis-labels highcharts-yaxis-labels" ><text x="105" text-anchor="end" style="width:100px;color:#606060;cursor:default;font-size:25px;fill:#606060;" y="377.5" opacity="1">-100</text><text x="105" text-anchor="end" style="width:100px;color:#606060;cursor:default;font-size:25px;fill:#606060;" y="345.29999999999995" opacity="1">-80</text><text x="105" text-anchor="end" style="width:100px;color:#606060;cursor:default;font-size:25px;fill:#606060;" y="313.1" opacity="1">-60</text><text x="105" text-anchor="end" style="width:100px;color:#606060;cursor:default;font-size:25px;fill:#606060;" y="280.9" opacity="1">-40</text><text x="105" text-anchor="end" style="width:100px;color:#606060;cursor:default;font-size:25px;fill:#606060;" y="248.70000000000005" opacity="1">-20</text><text x="105" text-anchor="end" style="width:100px;color:#606060;cursor:default;font-size:25px;fill:#606060;" y="216.5" opacity="1">0</text><text x="105" text-anchor="end" style="width:100px;color:#606060;cursor:default;font-size:25px;fill:#606060;" y="184.29999999999995" opacity="1">20</text><text x="105" text-anchor="end" style="width:100px;color:#606060;cursor:default;font-size:25px;fill:#606060;" y="152.10000000000002" opacity="1">40</text><text x="105" text-anchor="end" style="width:100px;color:#606060;cursor:default;font-size:25px;fill:#606060;" y="119.89999999999998" opacity="1">60</text><text x="105" text-anchor="end" style="width:100px;color:#606060;cursor:default;font-size:25px;fill:#606060;" y="87.69999999999999" opacity="1">80</text><text x="105" text-anchor="end" style="width:100px;color:#606060;cursor:default;font-size:25px;fill:#606060;" y="55.5" opacity="1">100</text></g><g class="highcharts-tooltip"  style="cursor:default;padding:0;white-space:nowrap;" transform="translate(0,-9999)"><path fill="none" d="M 3 0 L 13 0 C 16 0 16 0 16 3 L 16 13 C 16 16 16 16 13 16 L 3 16 C 0 16 0 16 0 13 L 0 3 C 0 0 0 0 3 0"  stroke="black" stroke-opacity="0.049999999999999996" stroke-width="5" transform="translate(1, 1)"></path><path fill="none" d="M 3 0 L 13 0 C 16 0 16 0 16 3 L 16 13 C 16 16 16 16 13 16 L 3 16 C 0 16 0 16 0 13 L 0 3 C 0 0 0 0 3 0"  stroke="black" stroke-opacity="0.09999999999999999" stroke-width="3" transform="translate(1, 1)"></path><path fill="none" d="M 3 0 L 13 0 C 16 0 16 0 16 3 L 16 13 C 16 16 16 16 13 16 L 3 16 C 0 16 0 16 0 13 L 0 3 C 0 0 0 0 3 0"  stroke="black" stroke-opacity="0.15" stroke-width="1" transform="translate(1, 1)"></path><path fill="rgb(249, 249, 249)" fill-opacity=" .85" d="M 3 0 L 13 0 C 16 0 16 0 16 3 L 16 13 C 16 16 16 16 13 16 L 3 16 C 0 16 0 16 0 13 L 0 3 C 0 0 0 0 3 0"></path><text x="8"  style="font-size:12px;color:#333333;fill:#333333;" y="21"></text></g><text x="790" text-anchor="end"  style="cursor:pointer;color:#909090;font-size:9px;fill:#909090;" y="795">Highcharts.com</text></svg>