<svg xmlns:xlink="http://www.w3.org/1999/xlink" version="1.1" style="font-family:'lucida grande', 'lucida sans unicode', arial, helvetica, sans-serif;font-size:12px;" xmlns="http://www.w3.org/2000/svg" width="800" height="800"><desc>Created with Highcharts 4.0.3</desc><defs><clipPath id="highcharts-33"><rect x="0" y="0" width="524" height="429"></rect></clipPath></defs><rect x="0" y="0" width="800" height="800" strokeWidth="0" fill="#FFFFFF" class=" highcharts-background"></rect><g class="highcharts-grid" ></g><g class="highcharts-grid" ><path fill="none" d="M 120 46.5 L 644 46.5" stroke="#C0C0C0" stroke-width="1"  opacity="1"></path><path fill="none" d="M 120 90.5 L 644 90.5" stroke="#C0C0C0" stroke-width="1"  opacity="1"></path><path fill="none" d="M 120 133.5 L 644 133.5" stroke="#C0C0C0" stroke-width="1"  opacity="1"></path><path fill="none" d="M 120 176.5 L 644 176.5" stroke="#C0C0C0" stroke-width="1"  opacity="1"></path><path fill="none" d="M 120 219.5 L 644 219.5" stroke="#C0C0C0" stroke-width="1"  opacity="1"></path><path fill="none" d="M 120 262.5 L 644 262.5" stroke="#C0C0C0" stroke-width="1"  opacity="1"></path><path fill="none" d="M 120 304.5 L 644 304.5" stroke="#C0C0C0" stroke-width="1"  opacity="1"></path><path fill="none" d="M 120 347.5 L 644 347.5" stroke="#C0C0C0" stroke-width="1"  opacity="1"></path><path fill="none" d="M 120 390.5 L 644 390.5" stroke="#C0C0C0" stroke-width="1"  opacity="1"></path><path fill="none" d="M 120 433.5 L 644 433.5" stroke="#C0C0C0" stroke-width="1"  opacity="1"></path><path fill="none" d="M 120 476.5 L 644 476.5" stroke="#C0C0C0" stroke-width="1"  opacity="1"></path></g><g class="highcharts-axis" ><path fill="none" d="M 329.5 476 L 329.5 486" stroke="#C0D0E0" stroke-width="1" opacity="1"></path><path fill="none" d="M 433.5 476 L 433.5 486" stroke="#C0D0E0" stroke-width="1" opacity="1"></path><path fill="none" d="M 538.5 476 L 538.5 486" stroke="#C0D0E0" stroke-width="1" opacity="1"></path><path fill="none" d="M 644.5 476 L 644.5 486" stroke="#C0D0E0" stroke-width="1" opacity="1"></path><path fill="none" d="M 224.5 476 L 224.5 486" stroke="#C0D0E0" stroke-width="1" opacity="1"></path><path fill="none" d="M 119.5 476 L 119.5 486" stroke="#C0D0E0" stroke-width="1" opacity="1"></path><path fill="none" d="M 120 476.5 L 644 476.5" stroke="#C0D0E0" stroke-width="1"  visibility="visible"></path></g><g class="highcharts-axis" ><text x="47"  text-anchor="middle" transform="translate(0,0) rotate(270 47 261.5)" class=" highcharts-yaxis-title" style="color:#707070;fill:#707070;" visibility="visible" y="261.5"><tspan>Importance relative (%) – fonctions touchees par l’IDBSE</tspan></text></g><g class="highcharts-series-group" ><g class="highcharts-series" visibility="visible"  transform="translate(120,47) scale(1 1)" clip-path="url(#highcharts-33)"><rect x="26.5" y="429.5" width="51" height="0" fill="#7cb5ec" rx="0" ry="0" stroke="#FFFFFF" stroke-width="1"></rect><rect x="131.5" y="429.5" width="51" height="0" fill="#7cb5ec" rx="0" ry="0" stroke="#FFFFFF" stroke-width="1"></rect><rect x="236.5" y="368.5" width="51" height="61" fill="#7cb5ec" rx="0" ry="0" stroke="#FFFFFF" stroke-width="1"></rect><rect x="341.5" y="61.5" width="51" height="368" fill="#7cb5ec" rx="0" ry="0" stroke="#FFFFFF" stroke-width="1"></rect><rect x="445.5" y="429.5" width="51" height="0" fill="#7cb5ec" rx="0" ry="0" stroke="#FFFFFF" stroke-width="1"></rect></g><g class="highcharts-markers" visibility="visible"  transform="translate(120,47) scale(1 1)" clip-path="none"></g></g><text x="400" text-anchor="middle" class="highcharts-title"  style="color:#333333;font-size:18px;fill:#333333;width:736px;" y="25">Operations</text><g class="highcharts-legend"  transform="translate(664,386)"><g ><g><g class="highcharts-legend-item"  transform="translate(8,3)"><text x="21" style="color:#000000;font-size:16px;font-weight:bold;cursor:pointer;fill:#000000;" text-anchor="start"  y="19">Operations</text><rect x="0" y="8" width="16" height="12"  fill="#7cb5ec"></rect></g></g></g></g><g class="highcharts-axis-labels highcharts-xaxis-labels" ><text x="172.4" text-anchor="end" transform="translate(0,0) rotate(-90 172.4 484)" style="color:red;cursor:default;font-size:16px;fill:red;" y="484" opacity="1"><tspan>Les finances</tspan></text><text x="277.20000000000005" text-anchor="end" transform="translate(0,0) rotate(-90 277.20000000000005 484)" style="color:red;cursor:default;font-size:16px;fill:red;" y="484" opacity="1"><tspan>La gestion des opérations</tspan></text><text x="382" text-anchor="end" transform="translate(0,0) rotate(-90 382 484)" style="color:red;cursor:default;font-size:16px;fill:red;" y="484" opacity="1"><tspan>Les opérations quotidiennes</tspan></text><text x="486.80000000000007" text-anchor="end" transform="translate(0,0) rotate(-90 486.80000000000007 484)" style="color:red;cursor:default;font-size:16px;fill:red;" y="484" opacity="1"><tspan>Les ressources humaines</tspan></text><text x="591.6" text-anchor="end" transform="translate(0,0) rotate(-90 591.6 484)" style="color:red;cursor:default;font-size:16px;fill:red;" y="484" opacity="1"><tspan>Le marketing (réputation, image, etc.)</tspan></text></g><g class="highcharts-axis-labels highcharts-yaxis-labels" ><text x="105" text-anchor="end" style="width:100px;color:#606060;cursor:default;font-size:25px;fill:#606060;" y="484.5" opacity="1">0</text><text x="105" text-anchor="end" style="width:100px;color:#606060;cursor:default;font-size:25px;fill:#606060;" y="441.6" opacity="1">10</text><text x="105" text-anchor="end" style="width:100px;color:#606060;cursor:default;font-size:25px;fill:#606060;" y="398.70000000000005" opacity="1">20</text><text x="105" text-anchor="end" style="width:100px;color:#606060;cursor:default;font-size:25px;fill:#606060;" y="355.79999999999995" opacity="1">30</text><text x="105" text-anchor="end" style="width:100px;color:#606060;cursor:default;font-size:25px;fill:#606060;" y="312.9" opacity="1">40</text><text x="105" text-anchor="end" style="width:100px;color:#606060;cursor:default;font-size:25px;fill:#606060;" y="270" opacity="1">50</text><text x="105" text-anchor="end" style="width:100px;color:#606060;cursor:default;font-size:25px;fill:#606060;" y="227.10000000000002" opacity="1">60</text><text x="105" text-anchor="end" style="width:100px;color:#606060;cursor:default;font-size:25px;fill:#606060;" y="184.2" opacity="1">70</text><text x="105" text-anchor="end" style="width:100px;color:#606060;cursor:default;font-size:25px;fill:#606060;" y="141.3" opacity="1">80</text><text x="105" text-anchor="end" style="width:100px;color:#606060;cursor:default;font-size:25px;fill:#606060;" y="98.39999999999998" opacity="1">90</text><text x="105" text-anchor="end" style="width:100px;color:#606060;cursor:default;font-size:25px;fill:#606060;" y="55.5" opacity="1">100</text></g><g class="highcharts-tooltip"  style="cursor:default;padding:0;white-space:nowrap;" transform="translate(0,-9999)"><path fill="none" d="M 3 0 L 13 0 C 16 0 16 0 16 3 L 16 13 C 16 16 16 16 13 16 L 3 16 C 0 16 0 16 0 13 L 0 3 C 0 0 0 0 3 0"  stroke="black" stroke-opacity="0.049999999999999996" stroke-width="5" transform="translate(1, 1)"></path><path fill="none" d="M 3 0 L 13 0 C 16 0 16 0 16 3 L 16 13 C 16 16 16 16 13 16 L 3 16 C 0 16 0 16 0 13 L 0 3 C 0 0 0 0 3 0"  stroke="black" stroke-opacity="0.09999999999999999" stroke-width="3" transform="translate(1, 1)"></path><path fill="none" d="M 3 0 L 13 0 C 16 0 16 0 16 3 L 16 13 C 16 16 16 16 13 16 L 3 16 C 0 16 0 16 0 13 L 0 3 C 0 0 0 0 3 0"  stroke="black" stroke-opacity="0.15" stroke-width="1" transform="translate(1, 1)"></path><path fill="rgb(249, 249, 249)" fill-opacity=" .85" d="M 3 0 L 13 0 C 16 0 16 0 16 3 L 16 13 C 16 16 16 16 13 16 L 3 16 C 0 16 0 16 0 13 L 0 3 C 0 0 0 0 3 0"></path><text x="8"  style="font-size:12px;color:#333333;fill:#333333;" y="21"></text></g><text x="790" text-anchor="end"  style="cursor:pointer;color:#909090;font-size:9px;fill:#909090;" y="795">Highcharts.com</text></svg>