<svg xmlns:xlink="http://www.w3.org/1999/xlink" version="1.1" style="font-family:'lucida grande', 'lucida sans unicode', arial, helvetica, sans-serif;font-size:12px;" xmlns="http://www.w3.org/2000/svg" width="800" height="800"><desc>Created with Highcharts 4.0.3</desc><defs><clipPath id="highcharts-35"><rect x="0" y="0" width="282" height="322"></rect></clipPath></defs><rect x="0" y="0" width="800" height="800" strokeWidth="0" fill="#FFFFFF" class=" highcharts-background"></rect><g class="highcharts-grid" ></g><g class="highcharts-grid" ><path fill="none" d="M 120 46.5 L 402 46.5" stroke="#C0C0C0" stroke-width="1"  opacity="1"></path><path fill="none" d="M 120 79.5 L 402 79.5" stroke="#C0C0C0" stroke-width="1"  opacity="1"></path><path fill="none" d="M 120 111.5 L 402 111.5" stroke="#C0C0C0" stroke-width="1"  opacity="1"></path><path fill="none" d="M 120 144.5 L 402 144.5" stroke="#C0C0C0" stroke-width="1"  opacity="1"></path><path fill="none" d="M 120 176.5 L 402 176.5" stroke="#C0C0C0" stroke-width="1"  opacity="1"></path><path fill="none" d="M 120 208.5 L 402 208.5" stroke="#C0C0C0" stroke-width="1"  opacity="1"></path><path fill="none" d="M 120 240.5 L 402 240.5" stroke="#C0C0C0" stroke-width="1"  opacity="1"></path><path fill="none" d="M 120 272.5 L 402 272.5" stroke="#C0C0C0" stroke-width="1"  opacity="1"></path><path fill="none" d="M 120 305.5 L 402 305.5" stroke="#C0C0C0" stroke-width="1"  opacity="1"></path><path fill="none" d="M 120 337.5 L 402 337.5" stroke="#C0C0C0" stroke-width="1"  opacity="1"></path><path fill="none" d="M 120 369.5 L 402 369.5" stroke="#C0C0C0" stroke-width="1"  opacity="1"></path></g><g class="highcharts-axis" ><path fill="none" d="M 170.5 369 L 170.5 379" stroke="#C0D0E0" stroke-width="1" opacity="1"></path><path fill="none" d="M 196.5 369 L 196.5 379" stroke="#C0D0E0" stroke-width="1" opacity="1"></path><path fill="none" d="M 222.5 369 L 222.5 379" stroke="#C0D0E0" stroke-width="1" opacity="1"></path><path fill="none" d="M 247.5 369 L 247.5 379" stroke="#C0D0E0" stroke-width="1" opacity="1"></path><path fill="none" d="M 273.5 369 L 273.5 379" stroke="#C0D0E0" stroke-width="1" opacity="1"></path><path fill="none" d="M 298.5 369 L 298.5 379" stroke="#C0D0E0" stroke-width="1" opacity="1"></path><path fill="none" d="M 324.5 369 L 324.5 379" stroke="#C0D0E0" stroke-width="1" opacity="1"></path><path fill="none" d="M 350.5 369 L 350.5 379" stroke="#C0D0E0" stroke-width="1" opacity="1"></path><path fill="none" d="M 375.5 369 L 375.5 379" stroke="#C0D0E0" stroke-width="1" opacity="1"></path><path fill="none" d="M 402.5 369 L 402.5 379" stroke="#C0D0E0" stroke-width="1" opacity="1"></path><path fill="none" d="M 145.5 369 L 145.5 379" stroke="#C0D0E0" stroke-width="1" opacity="1"></path><path fill="none" d="M 119.5 369 L 119.5 379" stroke="#C0D0E0" stroke-width="1" opacity="1"></path><path fill="none" d="M 120 369.5 L 402 369.5" stroke="#C0D0E0" stroke-width="1"  visibility="visible"></path></g><g class="highcharts-axis" ><text x="74"  text-anchor="middle" transform="translate(0,0) rotate(270 74 208)" class=" highcharts-yaxis-title" style="color:#707070;fill:#707070;" visibility="visible" y="208"><tspan>Importance relative (%) – fonctions touchees par l’IDBSE</tspan></text></g><g class="highcharts-series-group" ><g class="highcharts-series" visibility="visible"  transform="translate(120,47) scale(1 1)" clip-path="url(#highcharts-35)"><rect x="6.5" y="322.5" width="13" height="0" fill="#7cb5ec" rx="0" ry="0" stroke="#FFFFFF" stroke-width="1"></rect><rect x="31.5" y="322.5" width="13" height="0" fill="#7cb5ec" rx="0" ry="0" stroke="#FFFFFF" stroke-width="1"></rect><rect x="57.5" y="322.5" width="13" height="0" fill="#7cb5ec" rx="0" ry="0" stroke="#FFFFFF" stroke-width="1"></rect><rect x="83.5" y="322.5" width="13" height="0" fill="#7cb5ec" rx="0" ry="0" stroke="#FFFFFF" stroke-width="1"></rect><rect x="108.5" y="322.5" width="13" height="0" fill="#7cb5ec" rx="0" ry="0" stroke="#FFFFFF" stroke-width="1"></rect><rect x="134.5" y="322.5" width="13" height="0" fill="#7cb5ec" rx="0" ry="0" stroke="#FFFFFF" stroke-width="1"></rect><rect x="159.5" y="322.5" width="13" height="0" fill="#7cb5ec" rx="0" ry="0" stroke="#FFFFFF" stroke-width="1"></rect><rect x="185.5" y="322.5" width="13" height="0" fill="#7cb5ec" rx="0" ry="0" stroke="#FFFFFF" stroke-width="1"></rect><rect x="211.5" y="322.5" width="13" height="0" fill="#7cb5ec" rx="0" ry="0" stroke="#FFFFFF" stroke-width="1"></rect><rect x="236.5" y="290.5" width="13" height="0" fill="#7cb5ec" rx="0" ry="0" stroke="#FFFFFF" stroke-width="1"></rect><rect x="262.5" y="225.5" width="13" height="0" fill="#7cb5ec" rx="0" ry="0" stroke="#FFFFFF" stroke-width="1"></rect></g><g class="highcharts-markers" visibility="visible"  transform="translate(120,47) scale(1 1)" clip-path="none"></g><g class="highcharts-series" visibility="visible"  transform="translate(120,47) scale(1 1)" clip-path="url(#highcharts-35)"><rect x="6.5" y="322.5" width="13" height="0" fill="#434348" rx="0" ry="0" stroke="#FFFFFF" stroke-width="1"></rect><rect x="31.5" y="322.5" width="13" height="0" fill="#434348" rx="0" ry="0" stroke="#FFFFFF" stroke-width="1"></rect><rect x="57.5" y="322.5" width="13" height="0" fill="#434348" rx="0" ry="0" stroke="#FFFFFF" stroke-width="1"></rect><rect x="83.5" y="322.5" width="13" height="0" fill="#434348" rx="0" ry="0" stroke="#FFFFFF" stroke-width="1"></rect><rect x="108.5" y="322.5" width="13" height="0" fill="#434348" rx="0" ry="0" stroke="#FFFFFF" stroke-width="1"></rect><rect x="134.5" y="322.5" width="13" height="0" fill="#434348" rx="0" ry="0" stroke="#FFFFFF" stroke-width="1"></rect><rect x="159.5" y="322.5" width="13" height="0" fill="#434348" rx="0" ry="0" stroke="#FFFFFF" stroke-width="1"></rect><rect x="185.5" y="322.5" width="13" height="0" fill="#434348" rx="0" ry="0" stroke="#FFFFFF" stroke-width="1"></rect><rect x="211.5" y="322.5" width="13" height="0" fill="#434348" rx="0" ry="0" stroke="#FFFFFF" stroke-width="1"></rect><rect x="236.5" y="290.5" width="13" height="0" fill="#434348" rx="0" ry="0" stroke="#FFFFFF" stroke-width="1"></rect><rect x="262.5" y="225.5" width="13" height="0" fill="#434348" rx="0" ry="0" stroke="#FFFFFF" stroke-width="1"></rect></g><g class="highcharts-markers" visibility="visible"  transform="translate(120,47) scale(1 1)" clip-path="none"></g><g class="highcharts-series" visibility="visible"  transform="translate(120,47) scale(1 1)" clip-path="url(#highcharts-35)"><rect x="6.5" y="322.5" width="13" height="0" fill="#90ed7d" rx="0" ry="0" stroke="#FFFFFF" stroke-width="1"></rect><rect x="31.5" y="322.5" width="13" height="0" fill="#90ed7d" rx="0" ry="0" stroke="#FFFFFF" stroke-width="1"></rect><rect x="57.5" y="322.5" width="13" height="0" fill="#90ed7d" rx="0" ry="0" stroke="#FFFFFF" stroke-width="1"></rect><rect x="83.5" y="322.5" width="13" height="0" fill="#90ed7d" rx="0" ry="0" stroke="#FFFFFF" stroke-width="1"></rect><rect x="108.5" y="322.5" width="13" height="0" fill="#90ed7d" rx="0" ry="0" stroke="#FFFFFF" stroke-width="1"></rect><rect x="134.5" y="322.5" width="13" height="0" fill="#90ed7d" rx="0" ry="0" stroke="#FFFFFF" stroke-width="1"></rect><rect x="159.5" y="322.5" width="13" height="0" fill="#90ed7d" rx="0" ry="0" stroke="#FFFFFF" stroke-width="1"></rect><rect x="185.5" y="322.5" width="13" height="0" fill="#90ed7d" rx="0" ry="0" stroke="#FFFFFF" stroke-width="1"></rect><rect x="211.5" y="322.5" width="13" height="0" fill="#90ed7d" rx="0" ry="0" stroke="#FFFFFF" stroke-width="1"></rect><rect x="236.5" y="290.5" width="13" height="0" fill="#90ed7d" rx="0" ry="0" stroke="#FFFFFF" stroke-width="1"></rect><rect x="262.5" y="225.5" width="13" height="65" fill="#90ed7d" rx="0" ry="0" stroke="#FFFFFF" stroke-width="1"></rect></g><g class="highcharts-markers" visibility="visible"  transform="translate(120,47) scale(1 1)" clip-path="none"></g><g class="highcharts-series" visibility="visible"  transform="translate(120,47) scale(1 1)" clip-path="url(#highcharts-35)"><rect x="6.5" y="322.5" width="13" height="0" fill="#f7a35c" rx="0" ry="0" stroke="#FFFFFF" stroke-width="1"></rect><rect x="31.5" y="322.5" width="13" height="0" fill="#f7a35c" rx="0" ry="0" stroke="#FFFFFF" stroke-width="1"></rect><rect x="57.5" y="322.5" width="13" height="0" fill="#f7a35c" rx="0" ry="0" stroke="#FFFFFF" stroke-width="1"></rect><rect x="83.5" y="322.5" width="13" height="0" fill="#f7a35c" rx="0" ry="0" stroke="#FFFFFF" stroke-width="1"></rect><rect x="108.5" y="322.5" width="13" height="0" fill="#f7a35c" rx="0" ry="0" stroke="#FFFFFF" stroke-width="1"></rect><rect x="134.5" y="322.5" width="13" height="0" fill="#f7a35c" rx="0" ry="0" stroke="#FFFFFF" stroke-width="1"></rect><rect x="159.5" y="322.5" width="13" height="0" fill="#f7a35c" rx="0" ry="0" stroke="#FFFFFF" stroke-width="1"></rect><rect x="185.5" y="322.5" width="13" height="0" fill="#f7a35c" rx="0" ry="0" stroke="#FFFFFF" stroke-width="1"></rect><rect x="211.5" y="322.5" width="13" height="0" fill="#f7a35c" rx="0" ry="0" stroke="#FFFFFF" stroke-width="1"></rect><rect x="236.5" y="290.5" width="13" height="32" fill="#f7a35c" rx="0" ry="0" stroke="#FFFFFF" stroke-width="1"></rect><rect x="262.5" y="290.5" width="13" height="32" fill="#f7a35c" rx="0" ry="0" stroke="#FFFFFF" stroke-width="1"></rect></g><g class="highcharts-markers" visibility="visible"  transform="translate(120,47) scale(1 1)" clip-path="none"></g><g class="highcharts-series" visibility="visible"  transform="translate(120,47) scale(1 1)" clip-path="url(#highcharts-35)"><rect x="6.5" y="322.5" width="13" height="0" fill="#8085e9" rx="0" ry="0" stroke="#FFFFFF" stroke-width="1"></rect><rect x="31.5" y="322.5" width="13" height="0" fill="#8085e9" rx="0" ry="0" stroke="#FFFFFF" stroke-width="1"></rect><rect x="57.5" y="322.5" width="13" height="0" fill="#8085e9" rx="0" ry="0" stroke="#FFFFFF" stroke-width="1"></rect><rect x="83.5" y="322.5" width="13" height="0" fill="#8085e9" rx="0" ry="0" stroke="#FFFFFF" stroke-width="1"></rect><rect x="108.5" y="322.5" width="13" height="0" fill="#8085e9" rx="0" ry="0" stroke="#FFFFFF" stroke-width="1"></rect><rect x="134.5" y="322.5" width="13" height="0" fill="#8085e9" rx="0" ry="0" stroke="#FFFFFF" stroke-width="1"></rect><rect x="159.5" y="322.5" width="13" height="0" fill="#8085e9" rx="0" ry="0" stroke="#FFFFFF" stroke-width="1"></rect><rect x="185.5" y="322.5" width="13" height="0" fill="#8085e9" rx="0" ry="0" stroke="#FFFFFF" stroke-width="1"></rect><rect x="211.5" y="322.5" width="13" height="0" fill="#8085e9" rx="0" ry="0" stroke="#FFFFFF" stroke-width="1"></rect><rect x="236.5" y="322.5" width="13" height="0" fill="#8085e9" rx="0" ry="0" stroke="#FFFFFF" stroke-width="1"></rect><rect x="262.5" y="322.5" width="13" height="0" fill="#8085e9" rx="0" ry="0" stroke="#FFFFFF" stroke-width="1"></rect></g><g class="highcharts-markers" visibility="visible"  transform="translate(120,47) scale(1 1)" clip-path="none"></g></g><text x="400" text-anchor="middle" class="highcharts-title"  style="color:#333333;font-size:18px;fill:#333333;width:736px;" y="25">Operations</text><g class="highcharts-stack-labels" visibility="visible"  transform="translate(120,47)"><text x="13" style="color:#606060;cursor:default;font-size:11px;font-weight:bold;fill:#606060;" text-anchor="middle" transform="translate(0,0)" y="316">0</text><text x="38" style="color:#606060;cursor:default;font-size:11px;font-weight:bold;fill:#606060;" text-anchor="middle" transform="translate(0,0)" y="316">0</text><text x="64" style="color:#606060;cursor:default;font-size:11px;font-weight:bold;fill:#606060;" text-anchor="middle" transform="translate(0,0)" y="316">0</text><text x="90" style="color:#606060;cursor:default;font-size:11px;font-weight:bold;fill:#606060;" text-anchor="middle" transform="translate(0,0)" y="316">0</text><text x="115" style="color:#606060;cursor:default;font-size:11px;font-weight:bold;fill:#606060;" text-anchor="middle" transform="translate(0,0)" y="316">0</text><text x="141" style="color:#606060;cursor:default;font-size:11px;font-weight:bold;fill:#606060;" text-anchor="middle" transform="translate(0,0)" y="316">0</text><text x="167" style="color:#606060;cursor:default;font-size:11px;font-weight:bold;fill:#606060;" text-anchor="middle" transform="translate(0,0)" y="316">0</text><text x="192" style="color:#606060;cursor:default;font-size:11px;font-weight:bold;fill:#606060;" text-anchor="middle" transform="translate(0,0)" y="316">0</text><text x="218" style="color:#606060;cursor:default;font-size:11px;font-weight:bold;fill:#606060;" text-anchor="middle" transform="translate(0,0)" y="316">0</text><text x="244" style="color:#606060;cursor:default;font-size:11px;font-weight:bold;fill:#606060;" text-anchor="middle" transform="translate(0,0)" y="284">50</text><text x="269" style="color:#606060;cursor:default;font-size:11px;font-weight:bold;fill:#606060;" text-anchor="middle" transform="translate(0,0)" y="219">150</text></g><g class="highcharts-data-labels" visibility="visible"  transform="translate(120,47) scale(1 1)" opacity="1"><g  style="cursor:default;" transform="translate(7,301)"><text x="3"  style="font-size:11px;color:#606060;text-shadow:0 0 3px black, 0 0 3px black;fill:#606060;" y="15">0</text></g><g  style="cursor:default;" transform="translate(32,301)"><text x="3"  style="font-size:11px;color:#606060;text-shadow:0 0 3px black, 0 0 3px black;fill:#606060;" y="15">0</text></g><g  style="cursor:default;" transform="translate(58,301)"><text x="3"  style="font-size:11px;color:#606060;text-shadow:0 0 3px black, 0 0 3px black;fill:#606060;" y="15">0</text></g><g  style="cursor:default;" transform="translate(84,301)"><text x="3"  style="font-size:11px;color:#606060;text-shadow:0 0 3px black, 0 0 3px black;fill:#606060;" y="15">0</text></g><g  style="cursor:default;" transform="translate(109,301)"><text x="3"  style="font-size:11px;color:#606060;text-shadow:0 0 3px black, 0 0 3px black;fill:#606060;" y="15">0</text></g><g  style="cursor:default;" transform="translate(135,301)"><text x="3"  style="font-size:11px;color:#606060;text-shadow:0 0 3px black, 0 0 3px black;fill:#606060;" y="15">0</text></g><g  style="cursor:default;" transform="translate(160,301)"><text x="3"  style="font-size:11px;color:#606060;text-shadow:0 0 3px black, 0 0 3px black;fill:#606060;" y="15">0</text></g><g  style="cursor:default;" transform="translate(186,301)"><text x="3"  style="font-size:11px;color:#606060;text-shadow:0 0 3px black, 0 0 3px black;fill:#606060;" y="15">0</text></g><g  style="cursor:default;" transform="translate(212,301)"><text x="3"  style="font-size:11px;color:#606060;text-shadow:0 0 3px black, 0 0 3px black;fill:#606060;" y="15">0</text></g><g  style="cursor:default;" transform="translate(237,280)"><text x="3"  style="font-size:11px;color:#606060;text-shadow:0 0 3px black, 0 0 3px black;fill:#606060;" y="15">0</text></g><g  style="cursor:default;" transform="translate(263,215)"><text x="3"  style="font-size:11px;color:#606060;text-shadow:0 0 3px black, 0 0 3px black;fill:#606060;" y="15">0</text></g></g><g class="highcharts-data-labels" visibility="visible"  transform="translate(120,47) scale(1 1)" opacity="1"><g  style="cursor:default;" transform="translate(7,301)"><text x="3"  style="font-size:11px;color:#606060;text-shadow:0 0 3px black, 0 0 3px black;fill:#606060;" y="15">0</text></g><g  style="cursor:default;" transform="translate(32,301)"><text x="3"  style="font-size:11px;color:#606060;text-shadow:0 0 3px black, 0 0 3px black;fill:#606060;" y="15">0</text></g><g  style="cursor:default;" transform="translate(58,301)"><text x="3"  style="font-size:11px;color:#606060;text-shadow:0 0 3px black, 0 0 3px black;fill:#606060;" y="15">0</text></g><g  style="cursor:default;" transform="translate(84,301)"><text x="3"  style="font-size:11px;color:#606060;text-shadow:0 0 3px black, 0 0 3px black;fill:#606060;" y="15">0</text></g><g  style="cursor:default;" transform="translate(109,301)"><text x="3"  style="font-size:11px;color:#606060;text-shadow:0 0 3px black, 0 0 3px black;fill:#606060;" y="15">0</text></g><g  style="cursor:default;" transform="translate(135,301)"><text x="3"  style="font-size:11px;color:#606060;text-shadow:0 0 3px black, 0 0 3px black;fill:#606060;" y="15">0</text></g><g  style="cursor:default;" transform="translate(160,301)"><text x="3"  style="font-size:11px;color:#606060;text-shadow:0 0 3px black, 0 0 3px black;fill:#606060;" y="15">0</text></g><g  style="cursor:default;" transform="translate(186,301)"><text x="3"  style="font-size:11px;color:#606060;text-shadow:0 0 3px black, 0 0 3px black;fill:#606060;" y="15">0</text></g><g  style="cursor:default;" transform="translate(212,301)"><text x="3"  style="font-size:11px;color:#606060;text-shadow:0 0 3px black, 0 0 3px black;fill:#606060;" y="15">0</text></g><g  style="cursor:default;" transform="translate(237,280)"><text x="3"  style="font-size:11px;color:#606060;text-shadow:0 0 3px black, 0 0 3px black;fill:#606060;" y="15">0</text></g><g  style="cursor:default;" transform="translate(263,215)"><text x="3"  style="font-size:11px;color:#606060;text-shadow:0 0 3px black, 0 0 3px black;fill:#606060;" y="15">0</text></g></g><g class="highcharts-data-labels" visibility="visible"  transform="translate(120,47) scale(1 1)" opacity="1"><g  style="cursor:default;" transform="translate(7,301)"><text x="3"  style="font-size:11px;color:#606060;text-shadow:0 0 3px black, 0 0 3px black;fill:#606060;" y="15">0</text></g><g  style="cursor:default;" transform="translate(32,301)"><text x="3"  style="font-size:11px;color:#606060;text-shadow:0 0 3px black, 0 0 3px black;fill:#606060;" y="15">0</text></g><g  style="cursor:default;" transform="translate(58,301)"><text x="3"  style="font-size:11px;color:#606060;text-shadow:0 0 3px black, 0 0 3px black;fill:#606060;" y="15">0</text></g><g  style="cursor:default;" transform="translate(84,301)"><text x="3"  style="font-size:11px;color:#606060;text-shadow:0 0 3px black, 0 0 3px black;fill:#606060;" y="15">0</text></g><g  style="cursor:default;" transform="translate(109,301)"><text x="3"  style="font-size:11px;color:#606060;text-shadow:0 0 3px black, 0 0 3px black;fill:#606060;" y="15">0</text></g><g  style="cursor:default;" transform="translate(135,301)"><text x="3"  style="font-size:11px;color:#606060;text-shadow:0 0 3px black, 0 0 3px black;fill:#606060;" y="15">0</text></g><g  style="cursor:default;" transform="translate(160,301)"><text x="3"  style="font-size:11px;color:#606060;text-shadow:0 0 3px black, 0 0 3px black;fill:#606060;" y="15">0</text></g><g  style="cursor:default;" transform="translate(186,301)"><text x="3"  style="font-size:11px;color:#606060;text-shadow:0 0 3px black, 0 0 3px black;fill:#606060;" y="15">0</text></g><g  style="cursor:default;" transform="translate(212,301)"><text x="3"  style="font-size:11px;color:#606060;text-shadow:0 0 3px black, 0 0 3px black;fill:#606060;" y="15">0</text></g><g  style="cursor:default;" transform="translate(237,280)"><text x="3"  style="font-size:11px;color:#606060;text-shadow:0 0 3px black, 0 0 3px black;fill:#606060;" y="15">0</text></g><g  style="cursor:default;" transform="translate(255,248)"><text x="3"  style="font-size:11px;color:#606060;text-shadow:0 0 3px black, 0 0 3px black;fill:#606060;" y="15">100</text></g></g><g class="highcharts-data-labels" visibility="visible"  transform="translate(120,47) scale(1 1)" opacity="1"><g  style="cursor:default;" transform="translate(7,301)"><text x="3"  style="font-size:11px;color:#606060;text-shadow:0 0 3px black, 0 0 3px black;fill:#606060;" y="15">0</text></g><g  style="cursor:default;" transform="translate(32,301)"><text x="3"  style="font-size:11px;color:#606060;text-shadow:0 0 3px black, 0 0 3px black;fill:#606060;" y="15">0</text></g><g  style="cursor:default;" transform="translate(58,301)"><text x="3"  style="font-size:11px;color:#606060;text-shadow:0 0 3px black, 0 0 3px black;fill:#606060;" y="15">0</text></g><g  style="cursor:default;" transform="translate(84,301)"><text x="3"  style="font-size:11px;color:#606060;text-shadow:0 0 3px black, 0 0 3px black;fill:#606060;" y="15">0</text></g><g  style="cursor:default;" transform="translate(109,301)"><text x="3"  style="font-size:11px;color:#606060;text-shadow:0 0 3px black, 0 0 3px black;fill:#606060;" y="15">0</text></g><g  style="cursor:default;" transform="translate(135,301)"><text x="3"  style="font-size:11px;color:#606060;text-shadow:0 0 3px black, 0 0 3px black;fill:#606060;" y="15">0</text></g><g  style="cursor:default;" transform="translate(160,301)"><text x="3"  style="font-size:11px;color:#606060;text-shadow:0 0 3px black, 0 0 3px black;fill:#606060;" y="15">0</text></g><g  style="cursor:default;" transform="translate(186,301)"><text x="3"  style="font-size:11px;color:#606060;text-shadow:0 0 3px black, 0 0 3px black;fill:#606060;" y="15">0</text></g><g  style="cursor:default;" transform="translate(212,301)"><text x="3"  style="font-size:11px;color:#606060;text-shadow:0 0 3px black, 0 0 3px black;fill:#606060;" y="15">0</text></g><g  style="cursor:default;" transform="translate(233,296)"><text x="3"  style="font-size:11px;color:#606060;text-shadow:0 0 3px black, 0 0 3px black;fill:#606060;" y="15">50</text></g><g  style="cursor:default;" transform="translate(259,296)"><text x="3"  style="font-size:11px;color:#606060;text-shadow:0 0 3px black, 0 0 3px black;fill:#606060;" y="15">50</text></g></g><g class="highcharts-data-labels" visibility="visible"  transform="translate(120,47) scale(1 1)" opacity="1"><g  style="cursor:default;" transform="translate(7,301)"><text x="3"  style="font-size:11px;color:#606060;text-shadow:0 0 3px black, 0 0 3px black;fill:#606060;" y="15">0</text></g><g  style="cursor:default;" transform="translate(32,301)"><text x="3"  style="font-size:11px;color:#606060;text-shadow:0 0 3px black, 0 0 3px black;fill:#606060;" y="15">0</text></g><g  style="cursor:default;" transform="translate(58,301)"><text x="3"  style="font-size:11px;color:#606060;text-shadow:0 0 3px black, 0 0 3px black;fill:#606060;" y="15">0</text></g><g  style="cursor:default;" transform="translate(84,301)"><text x="3"  style="font-size:11px;color:#606060;text-shadow:0 0 3px black, 0 0 3px black;fill:#606060;" y="15">0</text></g><g  style="cursor:default;" transform="translate(109,301)"><text x="3"  style="font-size:11px;color:#606060;text-shadow:0 0 3px black, 0 0 3px black;fill:#606060;" y="15">0</text></g><g  style="cursor:default;" transform="translate(135,301)"><text x="3"  style="font-size:11px;color:#606060;text-shadow:0 0 3px black, 0 0 3px black;fill:#606060;" y="15">0</text></g><g  style="cursor:default;" transform="translate(160,301)"><text x="3"  style="font-size:11px;color:#606060;text-shadow:0 0 3px black, 0 0 3px black;fill:#606060;" y="15">0</text></g><g  style="cursor:default;" transform="translate(186,301)"><text x="3"  style="font-size:11px;color:#606060;text-shadow:0 0 3px black, 0 0 3px black;fill:#606060;" y="15">0</text></g><g  style="cursor:default;" transform="translate(212,301)"><text x="3"  style="font-size:11px;color:#606060;text-shadow:0 0 3px black, 0 0 3px black;fill:#606060;" y="15">0</text></g><g  style="cursor:default;" transform="translate(237,301)"><text x="3"  style="font-size:11px;color:#606060;text-shadow:0 0 3px black, 0 0 3px black;fill:#606060;" y="15">0</text></g><g  style="cursor:default;" transform="translate(263,301)"><text x="3"  style="font-size:11px;color:#606060;text-shadow:0 0 3px black, 0 0 3px black;fill:#606060;" y="15">0</text></g></g><g class="highcharts-legend"  transform="translate(422,346)"><g ><g><g class="highcharts-legend-item"  transform="translate(8,3)"><text x="21" style="color:#000000;font-size:16px;font-weight:bold;cursor:pointer;fill:#000000;" text-anchor="start"  y="19"><tspan>Les finances</tspan></text><rect x="0" y="8" width="16" height="12"  fill="#7cb5ec"></rect></g><g class="highcharts-legend-item"  transform="translate(8,23)"><text x="21" y="19" style="color:#000000;font-size:16px;font-weight:bold;cursor:pointer;fill:#000000;" text-anchor="start" ><tspan>La gestion des opérations</tspan></text><rect x="0" y="8" width="16" height="12"  fill="#434348"></rect></g><g class="highcharts-legend-item"  transform="translate(8,43)"><text x="21" y="19" style="color:#000000;font-size:16px;font-weight:bold;cursor:pointer;fill:#000000;" text-anchor="start" ><tspan>Les opérations quotidiennes</tspan></text><rect x="0" y="8" width="16" height="12"  fill="#90ed7d"></rect></g><g class="highcharts-legend-item"  transform="translate(8,63)"><text x="21" y="19" style="color:#000000;font-size:16px;font-weight:bold;cursor:pointer;fill:#000000;" text-anchor="start" ><tspan>Les ressources humaines</tspan></text><rect x="0" y="8" width="16" height="12"  fill="#f7a35c"></rect></g><g class="highcharts-legend-item"  transform="translate(8,83)"><text x="21" y="19" style="color:#000000;font-size:16px;font-weight:bold;cursor:pointer;fill:#000000;" text-anchor="start" ><tspan>Le marketing (réputation, image, etc.)</tspan></text><rect x="0" y="8" width="16" height="12"  fill="#8085e9"></rect></g></g></g></g><g class="highcharts-axis-labels highcharts-xaxis-labels" ><text x="132.8181818181818" text-anchor="end" transform="translate(0,0) rotate(-90 132.8181818181818 377)" style="color:red;cursor:default;font-size:16px;fill:red;" y="377" opacity="1"><tspan>Régulation des processus d'assimilation de déchets</tspan></text><text x="158.45454545454547" text-anchor="end" transform="translate(0,0) rotate(-90 158.45454545454547 377)" style="color:red;cursor:default;font-size:16px;fill:red;" y="377" opacity="1"><tspan>Régulation des conditions biophysiques</tspan></text><text x="184.0909090909091" text-anchor="end" transform="translate(0,0) rotate(-90 184.0909090909091 377)" style="color:red;cursor:default;font-size:16px;fill:red;" y="377" opacity="1"><tspan>Régulation des interactions biologiques</tspan></text><text x="209.72727272727275" text-anchor="end" transform="translate(0,0) rotate(-90 209.72727272727275 377)" style="color:red;cursor:default;font-size:16px;fill:red;" y="377" opacity="1"><tspan>Interaction physiques et experimentales</tspan></text><text x="235.36363636363637" text-anchor="end" transform="translate(0,0) rotate(-90 235.36363636363637 377)" style="color:red;cursor:default;font-size:16px;fill:red;" y="377" opacity="1"><tspan>Régulation des risques naturels</tspan></text><text x="261" text-anchor="end" transform="translate(0,0) rotate(-90 261 377)" style="color:red;cursor:default;font-size:16px;fill:red;" y="377" opacity="1"><tspan>Nourriture et boissons</tspan></text><text x="286.6363636363636" text-anchor="end" transform="translate(0,0) rotate(-90 286.6363636363636 377)" style="color:red;cursor:default;font-size:16px;fill:red;" y="377" opacity="1">Matériaux</text><text x="312.2727272727273" text-anchor="end" transform="translate(0,0) rotate(-90 312.2727272727273 377)" style="color:red;cursor:default;font-size:16px;fill:red;" y="377" opacity="1">Energie</text><text x="337.90909090909093" text-anchor="end" transform="translate(0,0) rotate(-90 337.90909090909093 377)" style="color:red;cursor:default;font-size:16px;fill:red;" y="377" opacity="1"><tspan>Aspect symboliques et religieux</tspan></text><text x="363.54545454545456" text-anchor="end" transform="translate(0,0) rotate(-90 363.54545454545456 377)" style="color:red;cursor:default;font-size:16px;fill:red;" y="377" opacity="1"><tspan>Interactions et représentations intellectuelles </tspan></text><text x="389.1818181818182" text-anchor="end" transform="translate(0,0) rotate(-90 389.1818181818182 377)" style="color:red;cursor:default;font-size:16px;fill:red;" y="377" opacity="1"><tspan>Ressources naturelles</tspan></text></g><g class="highcharts-axis-labels highcharts-yaxis-labels" ><text x="105" text-anchor="end" style="width:100px;color:#606060;cursor:default;font-size:11px;fill:#606060;" y="373.5" opacity="1">0</text><text x="105" text-anchor="end" style="width:100px;color:#606060;cursor:default;font-size:11px;fill:#606060;" y="341.29999999999995" opacity="1">50</text><text x="105" text-anchor="end" style="width:100px;color:#606060;cursor:default;font-size:11px;fill:#606060;" y="309.1" opacity="1">100</text><text x="105" text-anchor="end" style="width:100px;color:#606060;cursor:default;font-size:11px;fill:#606060;" y="276.9" opacity="1">150</text><text x="105" text-anchor="end" style="width:100px;color:#606060;cursor:default;font-size:11px;fill:#606060;" y="244.70000000000005" opacity="1">200</text><text x="105" text-anchor="end" style="width:100px;color:#606060;cursor:default;font-size:11px;fill:#606060;" y="212.5" opacity="1">250</text><text x="105" text-anchor="end" style="width:100px;color:#606060;cursor:default;font-size:11px;fill:#606060;" y="180.29999999999995" opacity="1">300</text><text x="105" text-anchor="end" style="width:100px;color:#606060;cursor:default;font-size:11px;fill:#606060;" y="148.10000000000002" opacity="1">350</text><text x="105" text-anchor="end" style="width:100px;color:#606060;cursor:default;font-size:11px;fill:#606060;" y="115.89999999999998" opacity="1">400</text><text x="105" text-anchor="end" style="width:100px;color:#606060;cursor:default;font-size:11px;fill:#606060;" y="83.69999999999999" opacity="1">450</text><text x="105" text-anchor="end" style="width:100px;color:#606060;cursor:default;font-size:11px;fill:#606060;" y="51.5" opacity="1">500</text></g><g class="highcharts-tooltip"  style="cursor:default;padding:0;white-space:nowrap;" transform="translate(0,-9999)"><path fill="none" d="M 3 0 L 13 0 C 16 0 16 0 16 3 L 16 13 C 16 16 16 16 13 16 L 3 16 C 0 16 0 16 0 13 L 0 3 C 0 0 0 0 3 0"  stroke="black" stroke-opacity="0.049999999999999996" stroke-width="5" transform="translate(1, 1)"></path><path fill="none" d="M 3 0 L 13 0 C 16 0 16 0 16 3 L 16 13 C 16 16 16 16 13 16 L 3 16 C 0 16 0 16 0 13 L 0 3 C 0 0 0 0 3 0"  stroke="black" stroke-opacity="0.09999999999999999" stroke-width="3" transform="translate(1, 1)"></path><path fill="none" d="M 3 0 L 13 0 C 16 0 16 0 16 3 L 16 13 C 16 16 16 16 13 16 L 3 16 C 0 16 0 16 0 13 L 0 3 C 0 0 0 0 3 0"  stroke="black" stroke-opacity="0.15" stroke-width="1" transform="translate(1, 1)"></path><path fill="rgb(249, 249, 249)" fill-opacity=" .85" d="M 3 0 L 13 0 C 16 0 16 0 16 3 L 16 13 C 16 16 16 16 13 16 L 3 16 C 0 16 0 16 0 13 L 0 3 C 0 0 0 0 3 0"></path><text x="8"  style="font-size:12px;color:#333333;fill:#333333;" y="21"></text></g><text x="790" text-anchor="end"  style="cursor:pointer;color:#909090;font-size:9px;fill:#909090;" y="795">Highcharts.com</text></svg>