<svg xmlns:xlink="http://www.w3.org/1999/xlink" version="1.1" style="font-family:'lucida grande', 'lucida sans unicode', arial, helvetica, sans-serif;font-size:12px;" xmlns="http://www.w3.org/2000/svg" width="800" height="800"><desc>Created with Highcharts 4.0.3</desc><defs><clipPath id="highcharts-25"><rect x="0" y="0" width="407" height="438"></rect></clipPath></defs><rect x="0" y="0" width="800" height="800" strokeWidth="0" fill="#FFFFFF" class=" highcharts-background"></rect><g class="highcharts-grid" ></g><g class="highcharts-grid" ><path fill="none" d="M 120 46.5 L 527 46.5" stroke="#C0C0C0" stroke-width="1"  opacity="1"></path><path fill="none" d="M 120 135.5 L 527 135.5" stroke="#C0C0C0" stroke-width="1"  opacity="1"></path><path fill="none" d="M 120 222.5 L 527 222.5" stroke="#C0C0C0" stroke-width="1"  opacity="1"></path><path fill="none" d="M 120 310.5 L 527 310.5" stroke="#C0C0C0" stroke-width="1"  opacity="1"></path><path fill="none" d="M 120 397.5 L 527 397.5" stroke="#C0C0C0" stroke-width="1"  opacity="1"></path><path fill="none" d="M 120 485.5 L 527 485.5" stroke="#C0C0C0" stroke-width="1"  opacity="1"></path></g><g class="highcharts-axis" ><path fill="none" d="M 282.5 485 L 282.5 495" stroke="#C0D0E0" stroke-width="1" opacity="1"></path><path fill="none" d="M 363.5 485 L 363.5 495" stroke="#C0D0E0" stroke-width="1" opacity="1"></path><path fill="none" d="M 445.5 485 L 445.5 495" stroke="#C0D0E0" stroke-width="1" opacity="1"></path><path fill="none" d="M 527.5 485 L 527.5 495" stroke="#C0D0E0" stroke-width="1" opacity="1"></path><path fill="none" d="M 200.5 485 L 200.5 495" stroke="#C0D0E0" stroke-width="1" opacity="1"></path><path fill="none" d="M 119.5 485 L 119.5 495" stroke="#C0D0E0" stroke-width="1" opacity="1"></path><path fill="none" d="M 120 485.5 L 527 485.5" stroke="#C0D0E0" stroke-width="1"  visibility="visible"></path></g><g class="highcharts-axis" ><text x="79"  text-anchor="middle" transform="translate(0,0) rotate(270 79 266)" class=" highcharts-yaxis-title" style="color:#707070;fill:#707070;" visibility="visible" y="266">Values</text></g><g class="highcharts-series-group" ><g class="highcharts-series" visibility="visible"  transform="translate(120,47) scale(1 1)" clip-path="url(#highcharts-25)"><rect x="20.5" y="175.5" width="40" height="263" fill="#7cb5ec" rx="0" ry="0" stroke="#FFFFFF" stroke-width="1"></rect><rect x="102.5" y="175.5" width="40" height="263" fill="#7cb5ec" rx="0" ry="0" stroke="#FFFFFF" stroke-width="1"></rect><rect x="183.5" y="175.5" width="40" height="263" fill="#7cb5ec" rx="0" ry="0" stroke="#FFFFFF" stroke-width="1"></rect><rect x="264.5" y="88.5" width="40" height="350" fill="#7cb5ec" rx="0" ry="0" stroke="#FFFFFF" stroke-width="1"></rect><rect x="346.5" y="-0.5" width="40" height="439" fill="#7cb5ec" rx="0" ry="0" stroke="#FFFFFF" stroke-width="1"></rect></g><g class="highcharts-markers" visibility="visible"  transform="translate(120,47) scale(1 1)" clip-path="none"></g></g><text x="400" text-anchor="middle" class="highcharts-title"  style="color:#333333;font-size:18px;fill:#333333;width:736px;" y="25"><tspan>Les Dépendances potentiels</tspan></text><g class="highcharts-legend"  transform="translate(547,386)"><g ><g><g class="highcharts-legend-item"  transform="translate(8,3)"><text x="21" style="color:#000000;font-size:16px;font-weight:bold;cursor:pointer;fill:#000000;" text-anchor="start"  y="19"><tspan>Dépendances potentiels</tspan></text><rect x="0" y="8" width="16" height="12"  fill="#7cb5ec"></rect></g></g></g></g><g class="highcharts-axis-labels highcharts-xaxis-labels" ><text x="160.7" text-anchor="end" transform="translate(0,0) rotate(-90 160.7 493)" style="color:red;cursor:default;font-size:16px;fill:red;" y="493" opacity="1"><tspan>Énergie renouvelable issue du vivant</tspan></text><text x="242.10000000000002" text-anchor="end" transform="translate(0,0) rotate(-90 242.10000000000002 493)" style="color:red;cursor:default;font-size:16px;fill:red;" y="493" opacity="1"><tspan>Régulation des flux hydriques</tspan></text><text x="323.5" text-anchor="end" transform="translate(0,0) rotate(-90 323.5 493)" style="color:red;cursor:default;font-size:16px;fill:red;" y="493" opacity="1"><tspan>Énergie non renouvelable abiotique</tspan></text><text x="404.90000000000003" text-anchor="end" transform="translate(0,0) rotate(-90 404.90000000000003 493)" style="color:red;cursor:default;font-size:16px;fill:red;" y="493" opacity="1">Religieux</text><text x="486.3" text-anchor="end" transform="translate(0,0) rotate(-90 486.3 493)" style="color:red;cursor:default;font-size:16px;fill:red;" y="493" opacity="1"><tspan>Energie renouvelable abiotique</tspan></text></g><g class="highcharts-axis-labels highcharts-yaxis-labels" ><text x="105" text-anchor="end" style="width:100px;color:#606060;cursor:default;font-size:25px;fill:#606060;" y="493.5" opacity="1">0</text><text x="105" text-anchor="end" style="width:100px;color:#606060;cursor:default;font-size:25px;fill:#606060;" y="405.9" opacity="1">1</text><text x="105" text-anchor="end" style="width:100px;color:#606060;cursor:default;font-size:25px;fill:#606060;" y="318.29999999999995" opacity="1">2</text><text x="105" text-anchor="end" style="width:100px;color:#606060;cursor:default;font-size:25px;fill:#606060;" y="230.70000000000005" opacity="1">3</text><text x="105" text-anchor="end" style="width:100px;color:#606060;cursor:default;font-size:25px;fill:#606060;" y="143.10000000000002" opacity="1">4</text><text x="105" text-anchor="end" style="width:100px;color:#606060;cursor:default;font-size:25px;fill:#606060;" y="55.5" opacity="1">5</text></g><g class="highcharts-tooltip"  style="cursor:default;padding:0;white-space:nowrap;" transform="translate(0,-9999)"><path fill="none" d="M 3 0 L 13 0 C 16 0 16 0 16 3 L 16 13 C 16 16 16 16 13 16 L 3 16 C 0 16 0 16 0 13 L 0 3 C 0 0 0 0 3 0"  stroke="black" stroke-opacity="0.049999999999999996" stroke-width="5" transform="translate(1, 1)"></path><path fill="none" d="M 3 0 L 13 0 C 16 0 16 0 16 3 L 16 13 C 16 16 16 16 13 16 L 3 16 C 0 16 0 16 0 13 L 0 3 C 0 0 0 0 3 0"  stroke="black" stroke-opacity="0.09999999999999999" stroke-width="3" transform="translate(1, 1)"></path><path fill="none" d="M 3 0 L 13 0 C 16 0 16 0 16 3 L 16 13 C 16 16 16 16 13 16 L 3 16 C 0 16 0 16 0 13 L 0 3 C 0 0 0 0 3 0"  stroke="black" stroke-opacity="0.15" stroke-width="1" transform="translate(1, 1)"></path><path fill="rgb(249, 249, 249)" fill-opacity=" .85" d="M 3 0 L 13 0 C 16 0 16 0 16 3 L 16 13 C 16 16 16 16 13 16 L 3 16 C 0 16 0 16 0 13 L 0 3 C 0 0 0 0 3 0"></path><text x="8"  style="font-size:12px;color:#333333;fill:#333333;" y="21"></text></g><text x="790" text-anchor="end"  style="cursor:pointer;color:#909090;font-size:9px;fill:#909090;" y="795">Highcharts.com</text></svg>